<?xml version="1.0" encoding="utf-8"?>
<!-- Generator: Adobe Illustrator 24.0.3, SVG Export Plug-In . SVG Version: 6.00 Build 0)  -->
<svg version="1.1" id="Layer_1" xmlns="http://www.w3.org/2000/svg" xmlns:xlink="http://www.w3.org/1999/xlink" x="0px" y="0px"
	 viewBox="0 0 120 140" style="enable-background:new 0 0 120 140;" xml:space="preserve">
<style type="text/css">
	.st0{fill:#01D277;}
	.st1{fill:#C74649;}
</style>
<title>team-icon</title>
<path class="st0" d="M58.4,126c-1.1,0-2.3,0-3.5-0.2c-15.8-1.4-25.6-13.8-26-14.3c-0.4-0.5-0.4-1.2,0-1.7c0.4-0.5,1.1-0.8,1.7-0.6
	c0.1,0,2.8,0.7,5.9-3c4.6-5.6,2.9-14.7,2.9-14.8c-0.2-0.8,0.3-1.6,1.1-1.8s1.6,0.3,1.8,1.1c0,0,0,0.1,0,0.1c0.1,0.4,2,10.7-3.5,17.3
	c-1.4,1.8-3.3,3.1-5.4,3.8c3.5,3.5,11.3,9.9,21.8,10.9c13.7,1.2,24.2-5.7,28.2-11.7c-2.6-1-7.1-3.2-8.1-6.6C73.6,99,74,91.7,74,91.3
	c0-0.8,0.8-1.5,1.6-1.4s1.5,0.8,1.4,1.6c0,0.1-0.4,7.1,1.1,12.2c0.7,2.3,5.2,4.4,7.9,5.2c0.8,0.2,1.3,1.1,1,1.9
	c0,0.1-0.1,0.2-0.1,0.3C83.1,118.6,72,126,58.4,126z"/>
<path class="st0" d="M96.4,86.7c0.6,0.6,1.6,0.9,2.4,0.5c0.7-0.2,1.2-0.9,1.1-1.7c0-0.7-0.1-1.4-0.3-2c-0.8-2.8-2.2-5.5-4.1-7.8
	c-1.5-1.6-1.7-4.1-0.6-6l0.2-0.3c0.6-1.1,1.2-2.2,1.8-3.3c0.2-0.4,0.5-0.9,0.8-1.3c0.4-0.7,0.8-1.3,1.1-2c1.7-3.1,2-6.8,0.8-10.1
	c-0.6-1.6-1.2-3.2-2-4.8c-2.7-5.5-2.8-10.6-0.5-15.3c0.3-0.7,0-1.5-0.7-1.8c-0.4-0.2-0.8-0.2-1.1,0c-0.5,0.3-0.9,0.7-1.2,1.2
	c-1.6,3.5-2.2,7.3-1.6,11.1c0.5,2.6,1.3,5,2.5,7.4l0.4,0.9c0.6,1.4,1.1,2.9,1.4,4.4c0.3,2.3-0.2,4.6-1.5,6.5c-1.3,2.3-2.6,4.6-3.8,7
	c-0.2,0.5-0.4,1-0.6,1.5c-0.1,0.3-0.2,0.6-0.3,1l-0.7,2l-0.3-2.1c-0.2-2.3-1.3-4.5-2.9-6.1c-0.9-0.9-1.3-2.3-1-3.6
	c0.1-0.9,0.2-1.7,0.2-2.6c-0.1-1.4,0.1-2.9,0.8-4.2c0.2-1.5,0.2-3.1,0.1-4.6c0-1,0-1.7,0-2c0.8-7.5-1.5-15.1-6.4-20.9
	c-2.1-2.4-4.6-4.5-7.3-6.1l-1.6-1.1c-0.5-0.4-1.1-0.8-1.7-1c-1.5-0.5-3.1-0.8-4.7-1.1L65,18.3c-0.3-0.1-0.7,0-1,0.1
	c-0.5,0.2-1,0.5-1.4,0.8c5.7,2,10.8,5.4,14.7,9.9c3.8,4,6,9.1,6.3,14.5c0.3,5.4-0.4,10.9-1.8,16.1c-0.8,2.5-0.2,5.2,1.7,7
	c0.6,0.6,1.2,1.3,1.7,2c1.2,1.5,1.6,3.5,1,5.3c-0.4,1.2-0.8,2.4-1.3,3.5c-0.3,0.9-0.7,1.8-1,2.7c-0.2,0.5-0.3,1-0.2,1.5
	c0.2,0.7-0.1,1.5-0.7,1.9c-0.6,0.5-1.2,1-1.8,1.4c-1.4,1.1-2.8,2.2-4.2,3.2c-8,5.7-18.1,7.5-27.6,5C43,91.8,37.4,88,32,81.7
	c-0.5-0.5-0.5-1.3,0-1.8c2.4-3.3,3.5-7.3,3.3-11.3c-0.2-1.9-0.5-3.9-1-5.8c-0.3-1.4-0.7-2.8-0.9-4.5c0-0.2-0.2-1.2-0.3-2.4
	c-0.2-1.7-0.5-3.7-0.5-3.8l-0.2-0.9c-0.2-0.8-0.3-1.6-0.3-2.4c-0.5-7,2.1-13.2,7.8-18.2c1.8-1.6,3.8-3.1,5.8-4.5l1.9-1.4
	c2.4-1.8,5.2-3,8.1-3.6c0.5-0.1,0.9-0.3,1.2-0.6c0.3-0.3,0.4-0.8,0.3-1.3c0-0.2-0.2-0.4-0.4-0.5c-0.9-0.2-1.8-0.3-2.7-0.2
	c-1.4,0.2-2.7,0.6-4,1.3c-2.2,1.3-4.4,2.7-6.6,4.1l-2.9,1.9c-0.6,0.4-1,0.9-1.1,1.6c-0.2,1-7.5,8.2-7.6,8.2c-1,0.5-2.4,5.1-2.9,7.3
	c-0.9,4.1-0.2,8.1,0.7,11.8c0,0.2,0.1,0.4,0.1,0.6c0.3,0.8,0.4,1.6,0.3,2.5c-0.3,3.7-0.1,7.4,0.6,11c0.5,2.9,0.8,5.5-0.7,8
	c-1,1.6-1.9,3.1-2.9,4.7l-1.6,2.4l-0.4-0.1c-0.2-0.1-0.5-0.2-0.7-0.2c-0.6-0.1-1.2-0.4-1.8-0.8c-1.1-1-2.2-2.2-3.1-3.4
	c-0.4-0.5-0.4-1.2-0.2-1.8c0.3-0.5,0.6-1,0.9-1.4c0.2-0.3,0.4-0.6,0.6-0.9c0.4-0.6,0.8-1.2,1.1-1.7c1-1.6,2.1-3.3,3-5
	c0.7-1.4,1.2-2.8,1.4-4.4c0.5-3-0.8-5.7-2.2-8.1c-0.4-0.7-0.8-1.3-1.2-2c-0.5-0.9-1.1-1.8-1.6-2.7c-1.8-2.8-1.7-6.5,0.2-9.2
	c2.7-4.2,6.5-8,11.9-11.8c0.3-0.2,0.6-0.3,1-0.4c0.6-0.1,1.5-0.5,1.4-1.5c0-0.4-0.2-0.8-0.5-1c-0.3-0.2-0.6-0.3-1-0.3
	c-1,0.1-1.9,0.4-2.7,0.9c-3.7,2.3-7.1,5.2-10,8.5C20.3,38.3,19,40.1,18,42c-1.5,2.5-1.7,5.6-0.6,8.3c0.6,1.5,1.3,2.9,2.1,4.2
	l0.7,1.2c0.4,0.7,0.7,1.3,1.1,1.9s0.9,1.5,1.3,2.3c1,1.9,1.1,4.1,0.1,6c-1.1,2.2-2.3,4.3-3.4,6.1c-0.4,0.7-0.9,1.3-1.4,2
	c-0.5,0.7-0.8,1.1-1.2,1.7c-1.5,2.3-1.4,3.9,0.5,6l0.4,0.4c0.7,0.8,1.4,1.6,2.2,2.4l0.4,0.4c1.2,1.3,2.3,2.5,4.3,2l0.9-0.2l-0.3,0.8
	c-0.4,1.2-0.3,1.8,0.2,2.1c0.8,0.5,1.6,0.8,2.5,1c0.6,0.1,1.3-0.3,1.5-0.9c0.3-0.6,0.1-1.3-0.4-1.7c-0.7-0.5-1-1.4-0.5-2.2
	c0-0.1,0.1-0.1,0.1-0.2c0.2-0.3,0.3-0.5,0.5-0.8l0.5-0.9l0.6,0.3c0.1,0,0.2,0.1,0.3,0.2l1.1,1.2c3.8,4.1,8.3,7.3,13.4,9.5
	c5.4,2.3,11.3,3,17.1,2.1c4-0.4,8-1.4,11.6-3.1c8.4-4.3,14-9.3,17.8-15.8c0.1-0.2,0.2-0.4,0.2-0.7c0-0.1,0.1-0.3,0.1-0.4l0.3-0.8
	l0.6,0.7c1.6,1.9,2.9,4,3.7,6.3c0.1,0.4,0.1,0.8,0,1.2C95.8,85.5,95.9,86.3,96.4,86.7z"/>
<path class="st0" d="M113.9,80.3c0.8-2,1.5-4.1,2.1-6.2c0.5-1.8,0.5-3.7-0.1-5.5c-0.7-1.8-1.9-3.4-3.5-4.6c-1.6-1.3-2.6-3.1-2.9-5.1
	v-0.4c-0.2-2.9-0.6-7.3,2.2-17.2l0.3-0.8c0.9-1.7,1.3-3.7,1.1-5.6c-0.9-6.8-3.6-12-8.1-16c-4.1-3.6-8.9-6.3-14.1-8
	c-6.8-2.1-14-3.1-21.1-3c-3.4-0.1-6.8,0.6-9.9,2c-0.5,0.1-1.1,0-1.5-0.4c-3-2.2-6.6-3.4-10.4-3.6c-0.7-0.1-1.4-0.1-2.1-0.1
	C41.8,6,37.5,6.7,33.3,8.1C21,11.8,12.7,18.7,7.9,29.2C5,35.3,5.1,42.5,8.2,48.5c0.1,0.1,0.2,0.2,0.3,0.3L8.8,49l0.1,0.1
	c0.2,0.2,0.3,0.4,0.4,0.6c0.6,1.8,0.3,3.8-0.9,5.3l-0.4,0.5c-0.8,1-1.7,2.1-2.5,3.1c-2.2,2.9-2.4,5.5-0.5,8.7
	c0.4,0.6,0.8,1.2,1.1,1.8l0.5,0.9c0.9,1.3,1,3,0.3,4.4c-0.2,0.3-0.3,0.6-0.5,1c-0.5,0.9-1,1.9-1.3,2.9c-0.4,1.1-0.7,2.2-0.7,3.3
	c0.2,2.4,1.6,4.4,3.2,6.4c0.2,0.3,0.5,0.6,0.7,0.9c0.9,0.5,2,0.3,2.7-0.5c0.3-0.4,0.5-1,0.4-1.5c0-0.3-0.2-0.5-0.4-0.7
	c-0.8-0.6-1.5-1.3-2-2.2c-0.1-0.2-0.3-0.4-0.5-0.7c-0.9-1.2-1-2.8-0.2-4.1c0.4-0.7,0.7-1.4,1.1-2.1l0.5-1c1.4-2.5,1.3-5.5-0.3-7.9
	l-0.3-0.5c-0.4-0.7-0.8-1.3-1.3-2c-1.2-1.5-1.1-3.6,0.1-5c0.3-0.5,0.7-0.9,1.1-1.4c0.6-0.7,1.1-1.5,1.7-2.2c1.4-1.6,2-3.7,1.8-5.8
	c-0.2-1.6-0.5-3.1-0.9-4.7c-0.1-0.2-0.2-0.4-0.3-0.5c-0.1-0.1-0.2-0.2-0.2-0.4c-0.1-0.2-0.2-0.3-0.3-0.5c-0.3-0.4-0.5-0.8-0.7-1.2
	c-1.3-3.9-1.2-8.2,0.3-12c2.9-7.4,8.2-13.5,15.2-17.2c5.8-3.1,12.2-5,18.7-5.7c3-0.4,6.1-0.1,9,0.8c2,0.5,3.5,2,4.1,4l8.4-2.3l0,0
	c1.6-0.5,3.3-0.8,5-0.8c3.7,0.3,7.6,0.7,11.6,1.2c7.3,1,14.1,3.9,19.8,8.6c6,4.8,8.6,11.4,7.6,19.5c-0.4,3.8-1.9,7.2-3.3,10.6
	l-0.6,1.3c-0.4,0.8-0.6,1.7-0.7,2.6c0.4,4.3,4.9,11.6,6.3,13c1.3,1.2,1.9,3,1.5,4.8c-0.2,1.2-0.5,2.4-0.9,3.5
	c-0.3,0.9-0.7,1.8-1.1,2.7c-0.2,0.4-0.4,0.9-0.6,1.3c-0.4,0.8-0.1,1.7,0.7,2.1c0.6,0.3,1.3,0.2,1.7-0.2
	C113.3,81.4,113.7,80.9,113.9,80.3z"/>
<path class="st1" d="M47.9,81.7c2.5,2,5.4,2.9,9.7,2.9h0.2c3.6,0.1,7.5-1.4,11.6-4.7c2.2-1.7,1.4-2.9,1.2-3.3
	c-0.2-0.3-0.5-0.6-0.8-0.7c-0.7,0-1.5,0.3-2,0.8c-2.3,1.9-5.1,3.3-8.1,4c-2.5,0.5-5,0.4-7.4-0.3c-1.8-0.6-3.4-1.7-4.5-3.2
	c-0.3-0.4-0.7-0.7-1.3-0.8c-0.3,0-0.6,0.1-0.8,0.4c-0.6,0.8-0.6,1.9,0.2,2.7C46.4,80.2,47.1,81,47.9,81.7z"/>
<path class="st0" d="M103.8,87.9c-0.8,0-1.5-0.7-1.5-1.5c0-0.4,0.1-0.8,0.4-1c2.5-2.7,1.8-4.4,0.7-7.1c-1.1-2.7-2.6-6.2,0.1-10.8
	c0.3-0.8,1.2-1.2,1.9-0.9c0.8,0.3,1.2,1.2,0.9,1.9c-0.1,0.1-0.1,0.3-0.2,0.4c-1.9,3.3-1,5.6,0,8.2c1.1,2.8,2.6,6.2-1.3,10.3
	C104.5,87.6,104.2,87.8,103.8,87.9z"/>
<path class="st0" d="M14.9,89.7c-0.8,0-1.5-0.7-1.5-1.5c0-0.5,0.3-1,0.8-1.3c1-0.7,1.8-1.6,2.2-2.8c0.2-0.4-1-1.6-1.9-2.4
	c-1.5-1.3-3.1-2.9-3.7-5c-1.2-4.1,3-12.4,3.4-13.4c0.3-0.8,1.2-1.1,2-0.8c0.8,0.3,1.1,1.2,0.8,2c0,0,0,0.1-0.1,0.1
	c-1.6,3.2-3.9,8.9-3.2,11.2c0.4,1.3,1.6,2.4,2.9,3.6c1.7,1.6,3.8,3.5,2.6,5.9c-0.7,1.7-2,3.2-3.6,4.1C15.4,89.6,15.1,89.7,14.9,89.7
	z"/>
<path class="st0" d="M61.5,134.1c-5.1-0.1-10.2-0.6-15.3-1.7c-13.7-2.7-24.7-20.1-25.1-20.9c-0.5-0.7-0.3-1.6,0.4-2.1
	s1.6-0.3,2.1,0.4c0,0,0.1,0.1,0.1,0.1c0.1,0.2,10.8,17,23.2,19.5c15,3,26.1,1.8,33-3.6c5-4,9.7-8.5,13.8-13.4
	c0.5-0.6,1.5-0.7,2.1-0.2c0.6,0.5,0.7,1.5,0.2,2.1l0,0c-4.3,5.1-9.1,9.7-14.3,13.8C76.6,132.2,70,134.1,61.5,134.1z"/>
</svg>
