<?xml version="1.0" encoding="utf-8"?>
<!-- Generator: Adobe Illustrator 24.0.3, SVG Export Plug-In . SVG Version: 6.00 Build 0)  -->
<svg version="1.1" id="Layer_1" xmlns="http://www.w3.org/2000/svg" xmlns:xlink="http://www.w3.org/1999/xlink" x="0px" y="0px"
	 viewBox="0 0 120 140" style="enable-background:new 0 0 120 140;" xml:space="preserve">
<style type="text/css">
	.st0{fill:#1196C6;}
	.st1{fill:#C74649;}
	.st2{fill:none;stroke:#1196C6;stroke-width:3;stroke-linecap:round;stroke-linejoin:round;}
</style>
<title>team-icon</title>
<path class="st0" d="M61.2,126.4l-1.4-1.1c-18.5-14.3-18.4-16.7-18.4-17.7c0-0.7,0.4-1.4,1-1.8c1.4-0.9,1.3-6.2,0.4-10.4l3.9,3.1
	c0.4,1.7,2,5.8-0.9,9.5c1.9,2.3,8.6,8.1,15,13.1l12.5-13.2l-1.7-12.2L75,92l2.6,17.2L61.2,126.4z"/>
<path class="st0" d="M92.2,10.6l-0.7-0.3c-6.7-3.1-13.7-6.2-21.5-5.7h-0.5l-0.1-0.5c-0.1-1-0.8-1.7-2.3-2.3c-0.5-0.2-1-0.3-1.5-0.4
	c-5.3-1.3-10.7-0.9-16.6,1.3c-5.1,2-10.1,4.6-14.7,7.6C26.9,15.1,21.4,22,18.2,31.1c-1.8,4.8-2.4,9.9-1.9,15
	c0.8,5.5,1.4,10.1,2.1,14.7c0.4,2.4,0.9,4.8,1.7,7.2c0.2,0.8,0.7,1.4,1.5,1.8c0.8,0.3,1.7,0.2,2.5-0.2l0.5-0.2l0.3,0.6
	c0.1,0.1,0.1,0.2,0.1,0.3c1.8,6.9,5.2,13.2,8.2,18.4c1.5,2.7,3.5,5.1,5.9,7.1c4.6,3.8,10.4,5.7,17.7,5.8H57c7.8,0.2,15.4-2.8,21-8.2
	c4.3-4.1,8.7-8.6,11.8-14.4c2.2-4.2,4-8.7,5.1-13.3c0.1-0.7,0.6-1.3,1.3-1.4c0.6-0.2,1.2-0.6,1.5-1.2l0.4-1c1.6-4,3.3-8.1,4.7-12.2
	c1.3-3.9,1.1-8.1,0.9-12c-0.3-5.3-1-11.6-3.5-17.6C98.2,15.8,96.1,12.4,92.2,10.6z M55.8,4.6c3-0.8,6.2-0.8,9.2,0l-0.1,1H52.4
	L55.8,4.6z M22.9,60.5l-1,0.1l-0.7-4.3c-0.1-0.8-0.2-1.6-0.3-2.4c-0.1-1.1-0.3-2.2-0.4-3.4c-0.4-2.7-0.7-5.4-0.7-8.1
	c0-7.2,2.4-14.2,6.9-19.9c0.3-0.4,0.7-0.9,1-1.4l0.4-0.6L29,21C22.7,33.8,22.4,47.6,22.9,60.5z M26.5,59.6l-0.1-1
	c0-0.5-0.1-1.1-0.1-1.6c-0.4-9.8,0.3-17.8,2.4-25.2c1.7-6.2,4.1-10.8,7.6-14.5c2.6-2.6,5.8-4.7,9.3-5.9c0.5-0.2,1-0.3,1.6-0.4
	c0.4-0.1,0.9-0.2,1.3-0.3c9.1-3,17.9-1.7,25.3-0.1c5,1.1,9.5,3.5,13.2,7c2.5,2.2,4.1,5.3,4.6,8.6c0.6,3.7,1.2,7.5,1.7,11.1l0.3,2
	c0.1,0.4,0.1,0.8,0.1,1.3c0,0.2,0,0.5,0,0.7v0.9l-1.3-0.7L91.4,41c-6.5-4.1-12.1-9.5-16.4-15.9l-1.1-1.6c-1.6-2.3-3.2-4.6-4.8-6.9
	c-0.4-0.4-0.8-0.7-1.2-0.9c-0.3-0.2-0.7-0.3-1-0.6l-0.2-0.1v-0.2c-0.4-1.2-0.8-2-1.3-2.1s-1.3,0.4-1.8,0.9l-0.4,0.4l-0.4-0.5
	c-0.1-0.1-0.2-0.2-0.2-0.3c-0.3-0.6-1.1-0.9-1.7-0.6c-0.6,0.2-1,0.7-1,1.6c-0.1,0.6-0.1,1.2-0.2,1.8c-0.1,1.9-0.4,3.8-0.7,5.7
	c-2.6,13.3-7.4,24.1-14.6,33c-1.2,1.5-2.6,2.9-4,4.3l-1,1c-0.4,0.4-1,0.6-1.6,0.4c-0.6-0.3-1.3-0.2-1.8,0.2
	c-0.4,0.5-0.6,1.1-0.4,1.7c0.1,0.3,0,0.7-0.2,1l-0.1,0.1l0.3,0.1c0.3,0.1,0.7,0.2,1,0.4c0.6,0.3,1.2,0.5,1.8,0.5
	c1-0.2,1.9-0.6,2.7-1.3c4.9-4,8.3-9,11.1-13.3C57.6,41,61.1,31,62.6,19.3c0-0.2,0.1-0.4,0.1-0.6l0.1-0.2l0.6-2.6l0.3,2.8
	c1,9,5.2,17.1,13.5,26.1l0.4,0.4l-0.5,0.3c-3.1,2.1-5.4,5.2-6.6,8.7c-0.2,0.6-0.8,0.9-1.4,0.8h-0.1c-2.7-0.2-5.2-0.5-7.7-0.6
	c-0.6,0-1.1,0.1-1.7,0.3c-0.3,0.1-0.6,0.2-0.9,0.2l-0.4,0.1l-0.1-0.4c0-0.2-0.1-0.3-0.2-0.5c-0.1-0.4-0.3-0.8-0.5-1.2
	c-0.3-0.8-1.2-1.3-2.1-1c-0.9,0.2-1.4,1.1-1.1,2c0,0,0,0,0,0c1,3.7,0,7.2-1.1,10.4c-0.8,2.4-2.5,4.3-4.8,5.3
	c-1.1,0.5-2.3,0.8-3.6,0.8c-1.2,0-2.4-0.2-3.6-0.7c-1.7-0.7-3.3-1.7-4.8-2.8c-0.6-0.4-1-1-1.4-1.6c-0.1-0.2-0.3-0.4-0.5-0.6
	l-0.2-0.3l0,0v-0.1l-0.8-1l0.6,0.2v-0.1c0-0.2-0.1-0.4-0.2-0.6c-0.2-0.5-0.3-1.1-0.4-1.6c0-0.5,0.2-1.1,0.7-1.4
	c0.8-0.4,1.1-1.3,0.8-2.1c-0.1-0.5,0-1.1,0.3-1.5c7.1-8,11.9-17.1,15.6-25c2.5-5.2,4-10.8,4.5-16.6c0-0.4,0-0.8,0-1.2
	c0-0.8-0.6-1.4-1.4-1.4c-0.7-0.1-1.4,0.5-1.5,1.2c-0.1,0.7-0.2,1.3-0.3,2s-0.2,1.3-0.3,2c-0.9,4.5-2.3,8.8-4.4,12.9
	C43.5,39,39.5,46.3,34,52.6c-1.4,1.7-2.9,3.3-4.3,4.9l-2,2.2l-0.2,0.3L26.5,59.6z M74.2,53.9c0.1-0.2,0.2-0.5,0.3-0.7
	c0.7-1.7,1.8-3.4,4.7-3.1c2.5,0.2,5,0.8,7.3,1.8c1.7,0.9,2.7,2.8,2.5,4.7c-0.2,3.2-1.4,6.2-3.4,8.7c-1.6,1.9-3.1,2.8-5,2.8
	c-1,0-2-0.2-2.9-0.6c-3-1-5.1-3.7-5.2-6.9v-0.1l0.3-0.7c0.2-0.5,0.4-0.9,0.6-1.4c0-0.1,0.1-0.2,0.1-0.3c0.1-0.2,0.2-0.5,0.2-0.8
	C73.4,56.2,73.6,54.9,74.2,53.9z M91.6,64.5c-1.8,7.6-4.7,13.8-8.8,18.8c-2.8,3.4-6,6.6-9.4,9.4c-4.5,3.6-10.2,5.6-16,5.4
	c-1,0-2,0-3-0.1c-3.4-0.2-6.6-1.1-9.6-2.6c-2.8-1.5-5.3-3.6-7-6.3c-5-7.7-8.3-14.9-9.9-22.2c-0.5-1.2,0-2.7,1.1-3.4
	c0.2-0.2,0.4-0.4,0.5-0.6c0.1-0.2,0.3-0.4,0.4-0.6l0.6-0.7l0.3,0.9c0.1,0.4,0.3,0.8,0.4,1.1c0.2,0.5,0.4,1.1,0.6,1.6
	c1.8,3.9,5.2,6.7,9.4,7.9c3.9,1.2,8,0.5,11.3-1.8c3.2-2.3,4.4-5.8,5.2-9c0.2-1,0.4-2.1,0.6-3.1c0.1-0.5,0.2-1,0.2-1.5l0.1-0.4h0.4
	l1.9,0.1c1.6,0,3.2,0.1,4.9,0.2c0.8,0.1,1.5,0.2,2.2,0.4l0.8,0.2l0.4,0.1v0.4c0,0.6,0.1,1.1,0.1,1.7c0,1.1,0.1,2.2,0.4,3.2
	c1,4.1,3.7,6.7,8.4,7.9c3.8,1.1,7.8-0.2,10.1-3.4c0.6-0.8,1.2-1.6,1.8-2.5c0.3-0.4,0.6-0.8,0.9-1.2l1.4-2L91.6,64.5z M93.5,54.3
	l-1,0.2l-0.2-0.4c-0.1-0.1-0.2-0.3-0.2-0.4c-0.6-2.2-2.2-4.1-4.4-5c-2.9-1.3-5.4-3.3-7.4-5.8c-2.6-3-5.2-6.2-7.9-10
	c-2-3-3.5-6.3-4.2-9.8l-0.6-2.2l1.6,2.1c0.2,0.2,0.3,0.4,0.5,0.6c0.8,1.1,1.7,2.3,2.5,3.4c1.8,2.5,3.7,5.1,5.7,7.4
	c3.6,4.3,8.3,7.5,12.9,10.3c0.5,0.3,1,0.5,1.6,0.6c0.3,0.1,0.7,0.2,1.1,0.3l0.3,0.1L93.5,54.3z M99.7,48.3c-0.3,1.5-0.8,2.9-1.5,4.2
	l-1,2v-2.9c0-0.5,0-1,0-1.5c0.6-7-0.4-14.1-1.4-20.1c-0.3-2-0.6-3.8-1-5.5c-0.7-3.7-2.6-7-5.5-9.5L88,13.9l-2.4-2.2l2.2,0.7
	c3.9,1.2,7.1,4.2,8.6,8c2.1,5,3.3,10.4,3.7,15.8C100.6,40.3,100.5,44.3,99.7,48.3z"/>
<path class="st1" d="M61.6,90L61.6,90c2,0,3.6-1.6,3.6-3.5c0.1-2-1.4-3.6-3.4-3.7c0,0,0,0,0,0c-1,0-1.9,0.3-2.7,1
	c-0.7,0.7-1.1,1.6-1.1,2.6C58,88.4,59.6,90,61.6,90z"/>
<path class="st2" d="M91.6,74.5c0,0,5.2-2.2,6.5-4.7c1.3-2.6,1.7-13.9,1.7-13.9"/>
<path class="st0" d="M72.8,139.2c-0.6,0-1.1-0.2-1.5-0.7l-10.4-11.9l-12.5,11.7c-0.8,0.8-2.1,0.8-2.8,0c-0.1-0.1-0.1-0.1-0.2-0.2
	L32,120.8c-0.6-0.7-0.6-1.8,0-2.5l10-12.1c0.7-0.9,2-1,2.8-0.3c0.9,0.7,1,2,0.3,2.8l0,0l-9,10.8l11.1,14.3l12.4-11.6
	c0.8-0.8,2.1-0.7,2.8,0.1c0,0,0,0,0,0l10.1,11.5l11-16.3l-9.4-7.6c-0.9-0.7-1-2-0.3-2.8s2-1,2.8-0.3l10.8,8.7c0.8,0.6,1,1.8,0.4,2.7
	l-13.5,20c-0.3,0.5-0.9,0.8-1.5,0.9L72.8,139.2z"/>
</svg>
