<?xml version="1.0" encoding="utf-8"?>
<!-- Generator: Adobe Illustrator 24.0.3, SVG Export Plug-In . SVG Version: 6.00 Build 0)  -->
<svg version="1.1" id="Layer_1" xmlns="http://www.w3.org/2000/svg" xmlns:xlink="http://www.w3.org/1999/xlink" x="0px" y="0px"
	 viewBox="0 0 120 140" style="enable-background:new 0 0 120 140;" xml:space="preserve">
<style type="text/css">
	.st0{fill:#FFFFFF;}
	.st1{fill:#C74649;}
</style>
<title>team-icon</title>
<path class="st0" d="M23.4,127.3c0,0.4,0.3,0.7,0.8,0.8c0.8,0.2,1.5,0.5,2.3,0.7c1.1,0.4,2.3,0.7,3.5,1c9.5,2.6,19.3,3.5,29.1,2.9
	c4.4-0.2,8.6-1.3,12.5-3.3c1-0.7,2.3-0.6,3.1,0.4c0.5,0.5,1.2,0.7,1.9,0.4l2.6-1.1l0.7-0.3c8.4-3.5,13.6-9.8,15.6-18.9
	c0.1-0.3,0.2-0.6,0.4-0.8c4.3-5.2,7.1-11.4,8.4-19.1c0.1-0.8,0.3-1.6,0.6-2.4c0.1-0.4,0.3-0.7,0.4-1.1c0.2-0.4,0.4-0.8,0.5-1.3
	c1.1-4.9,1.6-9.8,1.7-14.8c0-4.4,0-9.1,0-14.7c0.1-7.2-0.8-14.5-2.7-21.5l-0.2-0.8c-0.8-2.9-1.6-5.9-3.6-8.3l-0.8-1
	c-0.9-1.2-1.9-2.4-2.9-3.6c-3.2-4-7.2-7.2-11.9-9.3c-6.4-2.8-13.3-3.5-19.8-3.8c-3.3-0.2-6.6-0.1-9.9,0c-1.6,0-3.2,0.1-4.7,0.1
	c-0.4,0-0.8,0-1.2-0.1h-0.8l-0.7-0.1c-0.5-0.1-1.1-0.1-1.6,0c-7.1,1.2-13.4,4.8-19.1,11.1c-4.5,4.9-8.3,11-12,19.3
	c-2.8,6.5-3.9,13.6-2.9,20.7c0.7,4.8,1.7,9.5,3.2,14.1c2.9,9.8,6.7,17.1,12.1,23.1c1.2,1.2,1.3,3.1,0.1,4.3
	c-0.1,0.1-0.2,0.2-0.3,0.3c-0.3,0.3-0.6,0.5-0.9,0.8c-2.2,1.8-4,4-5.3,6.5c-1.1,2.3-2,4.8-2.9,7.1c-0.3,0.9-0.7,1.8-1,2.7
	c0,0.2,0,0.4,0,0.5c0,0.2,0.1,0.3,0.2,0.5c0.3,0.3,0.6,0.6,0.9,0.8c0.5,0.5,1,1,1.5,1.5c0.2,0.3,0.6,0.5,1,0.3l3.1-0.7
	c3.8-0.9,7.6-1.9,11.5-2.6c8.3-1.7,20.5-7.2,23.2-9.3c1.6-1.2,3.4-2.3,5.3-3c0.4-0.2,0.8-0.3,1.1-0.5c1-0.5,2-0.9,3-1.3
	c1-0.4,2.1-0.8,3.1-1.3c3-1.6,5.6-3.7,7.8-6.3c3.8-4.5,6.9-9.6,9.1-15.1c3.4-7.9,5.6-16.2,6.5-24.8c0-0.2,0-0.5,0-0.8
	c-0.1-1.1,0.3-2.3,0.9-3.2c0-0.3,0-0.6-0.1-0.8c0-0.1,0-0.2-0.1-0.3c-0.1-0.3-0.1-0.6-0.2-0.9c-0.1-0.4-0.2-0.9-0.2-1.4
	c0-0.6,0-1.3,0-1.9s0-1.1,0-1.7c-0.4-6.7-1.9-11.7-4.9-15.5c-2.5-3.4-5.4-6.5-8.5-9.3c-3.2-2.9-7.1-4.9-11.4-5.8
	c-7-1.2-14.1-1.1-21.1,0.3c-0.8,0.2-1.5,0.4-2.3,0.6c-1.7,0.7-3.5,0.9-5.3,0.6l-0.2,0.1l-1,0.4c-0.8,0.3-1.5,0.6-2.2,1
	c-4.8,3-8.5,7.3-10.8,12.4c-3,6.7-3.7,13.8-4,19.7c-0.3,6.3,0.1,12.5,1.2,18.7c1.4,8.2,4.3,16,8.6,23.1c2.8,4.6,7.1,8.1,13.6,11.2
	c1.3,0.6,2.7,1.1,4,1.6l1.8,0.7l0.9,0.4l-0.8,0.5l-1,0.6c-0.8,0.5-1.6,0.9-2.3,1.5c-0.5,0.5-1.3,0.5-1.9,0.1
	c-5.1-2.8-9.9-6.2-14.3-10.1c-0.3-0.3-0.6-0.8-0.7-1.2L32.4,96c-0.3-1.4-0.5-2.3-1.7-2.7c-0.2-0.1-0.5-0.3-0.6-0.5
	c-0.5-0.8-1.1-1.5-1.6-2.2c-1.2-1.6-2.4-3.3-3.5-5c-4.5-7.5-6.7-15.9-8.3-23.2c-1.6-6.8-1.4-13.9,0.8-20.5c2-5.6,4.8-10.9,8.2-15.7
	c2.5-4,5.7-7.5,9.4-10.3c4.7-3.5,10.1-6.6,16.9-5.7c1.3,0.1,2.6,0.2,3.9,0.1c0.7,0,1.3,0,2,0c6.2,0,12.4,0.5,18.5,1.5
	c7.9,1.2,15,5.6,19.6,12.1c0.4,0.5,0.7,1,1.1,1.4c1.1,1.3,2,2.7,2.7,4.2c1.2,3.1,2.2,6.3,2.9,9.6c1.2,6.5,1.8,13.1,1.6,19.6
	c0,1.4,0,2.7,0,4.1c0,6.2,0.1,12.6-1.2,18.9c-0.2,1.2-0.5,2.3-0.8,3.3c-0.1,0.5-0.3,0.9-0.5,1.4c-0.3,0.6-0.4,1.2-0.6,1.8
	c-1.7,9.6-4.9,16.2-10.6,21.2c-1.6,1.4-3.2,2.9-4.7,4.4c-3.5,3.4-7.2,6.6-11,9.6c-4.3,3.4-9.5,5.4-15,6c-7.5,0.7-15.1,0.3-22.5-1.2
	c-3.4-0.7-6.8-1.7-10.1-2.6c-1.5-0.4-3-0.9-4.5-1.3l0,0l0.1,0.4C23.1,125.4,23.3,126.3,23.4,127.3z M56.2,17.3
	c9.1-1.9,18.6,0.7,25.5,7.1c7,6.3,10.9,15.3,10,23.6l-0.1,0.7L91,48.3c-2.6-1.2-5.1-2.8-7.3-4.7l-2.2-2c-5.1-4.5-10.3-9.1-14.7-14.6
	c-2.8-3.7-6.5-6.7-10.7-8.8l-1.3-0.6L56.2,17.3z M27.9,40.3c1.7-9.1,5.2-15.4,11-19.8l0.2-0.1c1.2-0.9,3.3-2.5,5.6-0.2l0.5,0.5
	l-0.6,0.3c-6.6,3.6-10,9.6-13.7,16c-0.7,1.2-1.4,2.4-2.1,3.6l-1.3,2.4L27.9,40.3z M39.6,93.7c-1.7-1.5-3.1-3.3-4.2-5.3
	c-4-7.2-6.7-15-7.8-23.2c-0.4-3.2-0.6-6.4-0.7-9.5c-0.1-1.5-0.1-2.9-0.2-4.3c-0.1-0.8,0.3-1.7,1.1-2c0.4-0.2,0.7-0.6,0.9-1v-0.1
	c0.9-1.5,1.8-3.1,2.5-4.8c2.4-5.1,5.3-10,8.6-14.5c1.9-2.6,4.4-4.7,7.3-6.2c0.7-0.4,0.9-0.7,0.6-2.4l-0.1-0.6h0.6
	c3.7-0.1,7.4,1.2,10.3,3.6c2.9,2.4,5.6,5.1,7.9,8c2.7,3.3,5.7,6.3,8.9,9c1.3,1.2,2.6,2.3,3.9,3.5c3.4,3.3,7.4,5.9,11.7,7.9
	c0.5,0.3,0.9,0.8,0.9,1.4C90.8,66.1,86.8,78.5,80,89.4c-3.2,5.2-8,9.1-14.6,12.2c-1.6,0.7-3.3,1.1-5.1,1.1c-1.5,0-2.9-0.2-4.4-0.6
	C49.9,100.7,44.2,97.8,39.6,93.7z M31.5,100.7l0.3-0.2l0.3,0.3c4.1,3.7,8.5,7,13.3,9.7l0.3,0.1v1.1l-24.3,5.6l0.2-0.8
	C23,110.2,26.5,104.7,31.5,100.7L31.5,100.7z M90.1,114.7l-1.1,2.2c-2,4.2-5.9,6.5-10,8.7l-4,2.1L90.1,114.7z"/>
<path class="st1" d="M74.1,82.9c0.3-0.7,0.3-1.5-0.1-2.2c-0.5-0.7-1.4-1.1-2.2-1l0,0c-1.3,0-2.7,0.1-4,0.2
	c-6.9,0.6-13.7,1.1-20.6,0.3l0,0c-0.2,0-0.4,0-0.6,0c-1,0-1.1,0.4-1.1,0.5c-0.3,1.1-0.4,2.2-0.3,3.3v0.2c0.1,0.4,0.2,0.7,0.5,1
	c2.6,2.7,5.5,5,8.7,7c2.5,1.6,5.6,2.2,8.5,1.6C69.4,92.7,72.2,87.7,74.1,82.9z M60.9,90.9c-1,0-2.1-0.2-3.1-0.5
	c-1.2-0.5-2.4-1.1-3.4-1.9l-0.3-0.2c-1.1-0.7-2.1-1.6-3.1-2.4c-0.4-0.3-0.9-0.7-1.3-1.1l-1.1-0.9l21.7-0.4l-0.4,0.7
	C67.7,88.6,64.6,90.9,60.9,90.9z"/>
</svg>
