<svg id="Layer_1" data-name="Layer 1" xmlns="http://www.w3.org/2000/svg" viewBox="0 0 73.45 61.14"><defs><style>.cls-1{fill:#c74649;}</style></defs><title>btn</title><path class="cls-1" d="M37,61.14l-.23-.32-.23.32A284.55,284.55,0,0,1,6.85,36C.93,30.07-1.61,19.28,1.06,11.43,2.58,7,6.37,1.4,15.85.17A21.16,21.16,0,0,1,32.12,5a15.22,15.22,0,0,1,4.61,7,15.07,15.07,0,0,1,4.61-7A21.12,21.12,0,0,1,57.6.17C67.08,1.4,70.88,7,72.39,11.43c2.67,7.85.13,18.64-5.78,24.55A286.87,286.87,0,0,1,37,61.14Zm-18.5-60A18.26,18.26,0,0,0,16,1.3C7.1,2.46,3.55,7.65,2.14,11.8-.41,19.27,2,29.55,7.65,35.18A283.14,283.14,0,0,0,36.73,59.9,284.55,284.55,0,0,0,65.8,35.18c5.64-5.63,8.06-15.91,5.52-23.38-1.42-4.15-5-9.34-13.87-10.5A19.91,19.91,0,0,0,42.09,5.84a13.27,13.27,0,0,0-4.8,10.08H36.16a13.27,13.27,0,0,0-4.8-10.08A19.82,19.82,0,0,0,18.46,1.14Z"/></svg>