<svg id="Layer_1" data-name="Layer 1" xmlns="http://www.w3.org/2000/svg" viewBox="0 0 100 100"><defs><style>.cls-1{fill:#c74649;}</style></defs><title>btn</title><circle cx="50" cy="50" r="50"/><path class="cls-1" d="M50.43,84.77l-.23-.32-.23.32A286.37,286.37,0,0,1,20.32,59.62c-5.92-5.92-8.46-16.71-5.79-24.56,1.52-4.45,5.32-10,14.8-11.26a21.12,21.12,0,0,1,16.26,4.81,15.07,15.07,0,0,1,4.61,7,15.07,15.07,0,0,1,4.61-7A21.12,21.12,0,0,1,71.07,23.8c9.48,1.23,13.28,6.81,14.8,11.26,2.67,7.85.13,18.64-5.79,24.56A286.37,286.37,0,0,1,50.43,84.77Zm-18.5-60a18.48,18.48,0,0,0-2.46.16c-8.9,1.16-12.45,6.35-13.86,10.5-2.54,7.47-.12,17.75,5.51,23.38A284.27,284.27,0,0,0,50.2,83.53,284.27,284.27,0,0,0,79.28,58.81c5.63-5.63,8-15.91,5.51-23.38-1.41-4.15-5-9.34-13.86-10.5a20,20,0,0,0-15.37,4.54,13.3,13.3,0,0,0-4.79,10.08H49.63a13.27,13.27,0,0,0-4.79-10.08A19.85,19.85,0,0,0,31.93,24.77Z"/></svg>