<svg id="Layer_1" data-name="Layer 1" xmlns="http://www.w3.org/2000/svg" viewBox="0 0 473.96 80.54"><defs><style>.cls-1{fill:#fff;}.cls-2{isolation:isolate;}.cls-3{fill:#1196c6;}</style></defs><title>btn</title><path class="cls-1" d="M433.8,80.54c-1,0-2-.05-3.18-.14H43.31c-1.14.09-2.18.14-3.15.14A40.16,40.16,0,0,1,40,.22V0H434.43V.23a40.16,40.16,0,0,1-.63,80.31Zm-3.15-.89c1.18.09,2.2.14,3.15.14A39.41,39.41,0,0,0,434.06,1h-.38V.75H40.79V1h-.63a39.41,39.41,0,0,0,0,78.82c1,0,2-.05,3.13-.14Z"/><g id="December_18_2019" data-name="December 18 2019"><g class="cls-2"><path class="cls-1" d="M107.55,38.56a12.94,12.94,0,0,1-.87,4.81,10.83,10.83,0,0,1-6.27,6.24,13.54,13.54,0,0,1-5,.88H86.37V26.63h9.09a13.34,13.34,0,0,1,5,.88A11.27,11.27,0,0,1,104.22,30a11,11,0,0,1,2.46,3.77A13,13,0,0,1,107.55,38.56Zm-4.55,0a11.06,11.06,0,0,0-.52-3.53,7.41,7.41,0,0,0-1.5-2.64,6.68,6.68,0,0,0-2.38-1.66,8.25,8.25,0,0,0-3.14-.57H90.82V47h4.64a8.25,8.25,0,0,0,3.14-.57A6.68,6.68,0,0,0,101,44.72a7.41,7.41,0,0,0,1.5-2.64A11,11,0,0,0,103,38.56Z"/><path class="cls-1" d="M113.74,42.53a8.2,8.2,0,0,0,.46,2.25,4.44,4.44,0,0,0,1,1.57,3.94,3.94,0,0,0,1.41.93,5.25,5.25,0,0,0,1.81.3,5.64,5.64,0,0,0,1.7-.23,7.5,7.5,0,0,0,1.26-.51l.94-.51a1.51,1.51,0,0,1,.78-.23.83.83,0,0,1,.76.38L125,48a6.78,6.78,0,0,1-1.51,1.33,8.69,8.69,0,0,1-1.76.86,10,10,0,0,1-1.87.45,13,13,0,0,1-1.84.13,9.05,9.05,0,0,1-3.28-.58,7.43,7.43,0,0,1-2.64-1.73,8.09,8.09,0,0,1-1.76-2.84,11,11,0,0,1-.65-3.92,9.46,9.46,0,0,1,.56-3.26,8,8,0,0,1,1.61-2.66A7.61,7.61,0,0,1,114.41,34a8.43,8.43,0,0,1,3.41-.66,8.31,8.31,0,0,1,3,.51,6.4,6.4,0,0,1,2.33,1.5,6.8,6.8,0,0,1,1.52,2.41,8.89,8.89,0,0,1,.55,3.25,2.7,2.7,0,0,1-.19,1.25.83.83,0,0,1-.76.32Zm7.77-2.46a4.89,4.89,0,0,0-.22-1.49,3.49,3.49,0,0,0-.67-1.23,3.08,3.08,0,0,0-1.13-.83,4.3,4.3,0,0,0-4.37.7,4.93,4.93,0,0,0-1.3,2.85Z"/><path class="cls-1" d="M132.35,26V50.49h-4.07V26Z"/><path class="cls-1" d="M139.56,42.53a8.2,8.2,0,0,0,.46,2.25,4.59,4.59,0,0,0,1,1.57,3.94,3.94,0,0,0,1.41.93,5.25,5.25,0,0,0,1.81.3,5.75,5.75,0,0,0,1.71-.23,7.73,7.73,0,0,0,1.25-.51l.94-.51a1.51,1.51,0,0,1,.78-.23.82.82,0,0,1,.76.38L150.82,48a7.05,7.05,0,0,1-1.52,1.33,8.69,8.69,0,0,1-1.76.86,10.08,10.08,0,0,1-1.86.45,13.16,13.16,0,0,1-1.84.13,9.07,9.07,0,0,1-3.29-.58,7.43,7.43,0,0,1-2.64-1.73,8.23,8.23,0,0,1-1.76-2.84,11,11,0,0,1-.65-3.92,9.46,9.46,0,0,1,.56-3.26,8,8,0,0,1,1.61-2.66A7.61,7.61,0,0,1,140.23,34a8.43,8.43,0,0,1,3.41-.66,8.31,8.31,0,0,1,3,.51,6.4,6.4,0,0,1,2.33,1.5,6.66,6.66,0,0,1,1.52,2.41A8.89,8.89,0,0,1,151,41a2.66,2.66,0,0,1-.2,1.25.83.83,0,0,1-.76.32Zm7.77-2.46a4.89,4.89,0,0,0-.22-1.49,3.49,3.49,0,0,0-.67-1.23,3,3,0,0,0-1.13-.83,3.73,3.73,0,0,0-1.59-.31,3.78,3.78,0,0,0-2.78,1,4.93,4.93,0,0,0-1.3,2.85Z"/><path class="cls-1" d="M159.53,50.75a4.43,4.43,0,0,1-3.39-1.25A4.77,4.77,0,0,1,155,46.06V36.61h-1.74a.78.78,0,0,1-.56-.22.83.83,0,0,1-.23-.64V34.13l2.73-.44.85-4.62a.9.9,0,0,1,.32-.51.92.92,0,0,1,.59-.18H159v5.33h4.52v2.9H159v9.17a1.82,1.82,0,0,0,.39,1.24,1.33,1.33,0,0,0,1.07.45,1.91,1.91,0,0,0,.63-.09l.45-.19.33-.19a.58.58,0,0,1,.3-.09.49.49,0,0,1,.3.09,1.34,1.34,0,0,1,.25.27l1.22,2a6.28,6.28,0,0,1-2.05,1.12A7.71,7.71,0,0,1,159.53,50.75Z"/><path class="cls-1" d="M169.16,42.53a7.83,7.83,0,0,0,.47,2.25,4.57,4.57,0,0,0,1,1.57,3.94,3.94,0,0,0,1.41.93,5.25,5.25,0,0,0,1.81.3,5.75,5.75,0,0,0,1.71-.23,7.37,7.37,0,0,0,1.25-.51l.94-.51a1.52,1.52,0,0,1,.79-.23.84.84,0,0,1,.76.38L180.42,48a6.82,6.82,0,0,1-1.52,1.33,8.69,8.69,0,0,1-1.76.86,10.08,10.08,0,0,1-1.86.45,13.16,13.16,0,0,1-1.84.13,9.11,9.11,0,0,1-3.29-.58,7.43,7.43,0,0,1-2.64-1.73,8.38,8.38,0,0,1-1.76-2.84,11,11,0,0,1-.65-3.92,9.24,9.24,0,0,1,.57-3.26,7.94,7.94,0,0,1,1.6-2.66A7.71,7.71,0,0,1,169.83,34a8.43,8.43,0,0,1,3.41-.66,8.27,8.27,0,0,1,2.95.51,6.4,6.4,0,0,1,2.33,1.5A6.66,6.66,0,0,1,180,37.71,8.89,8.89,0,0,1,180.6,41a2.66,2.66,0,0,1-.2,1.25.83.83,0,0,1-.76.32Zm7.78-2.46a4.89,4.89,0,0,0-.23-1.49,3.49,3.49,0,0,0-.67-1.23,3,3,0,0,0-1.13-.83,3.73,3.73,0,0,0-1.59-.31,3.78,3.78,0,0,0-2.78,1,4.92,4.92,0,0,0-1.29,2.85Z"/><path class="cls-1" d="M192.86,50.49V36.62l-1.47-.23a1.65,1.65,0,0,1-.77-.33.85.85,0,0,1-.29-.69V33.71h2.53V32.45a7.37,7.37,0,0,1,.43-2.61,5.33,5.33,0,0,1,3.25-3.2,7.77,7.77,0,0,1,2.64-.43,7.2,7.2,0,0,1,2.17.32l-.08,2a.59.59,0,0,1-.13.37.7.7,0,0,1-.31.22,1.7,1.7,0,0,1-.43.1l-.53,0a4.72,4.72,0,0,0-1.3.16,2.22,2.22,0,0,0-1,.54,2.42,2.42,0,0,0-.6,1,5.05,5.05,0,0,0-.21,1.57v1.13h4.41v2.9h-4.28V50.49Z"/><path class="cls-1" d="M207.34,36.49a7.43,7.43,0,0,1,1.88-2.38,4,4,0,0,1,2.58-.87,3.15,3.15,0,0,1,1.88.51l-.26,3.06a.88.88,0,0,1-.24.42.7.7,0,0,1-.42.12,5.53,5.53,0,0,1-.74-.08,5.15,5.15,0,0,0-1-.08,3.44,3.44,0,0,0-1.2.19,3.38,3.38,0,0,0-1,.57,3.87,3.87,0,0,0-.74.9,8,8,0,0,0-.6,1.21V50.49H203.5V33.56h2.39a1.33,1.33,0,0,1,.88.22,1.36,1.36,0,0,1,.33.8Z"/><path class="cls-1" d="M222.82,33.29a9.34,9.34,0,0,1,3.42.61,7.45,7.45,0,0,1,4.34,4.47,11.43,11.43,0,0,1,0,7.25,7.7,7.7,0,0,1-1.7,2.75,7.27,7.27,0,0,1-2.64,1.75,9.13,9.13,0,0,1-3.42.61,9.33,9.33,0,0,1-3.45-.61,7.39,7.39,0,0,1-2.65-1.75,8,8,0,0,1-1.7-2.75,11.25,11.25,0,0,1,0-7.25,7.81,7.81,0,0,1,1.7-2.73,7.64,7.64,0,0,1,2.65-1.74A9.54,9.54,0,0,1,222.82,33.29Zm0,14.31A3.61,3.61,0,0,0,226,46.18,7.17,7.17,0,0,0,227,42a7.23,7.23,0,0,0-1-4.17,3.57,3.57,0,0,0-3.13-1.44,3.65,3.65,0,0,0-3.18,1.44,7.21,7.21,0,0,0-1,4.17,7.08,7.08,0,0,0,1,4.15A3.67,3.67,0,0,0,222.82,47.6Z"/><path class="cls-1" d="M234.29,50.49V33.56h2.49a1,1,0,0,1,1,.74l.26,1.25a8.82,8.82,0,0,1,.94-.9,5.58,5.58,0,0,1,2.22-1.18,5.16,5.16,0,0,1,1.4-.18,4,4,0,0,1,2.63.87,5.17,5.17,0,0,1,1.54,2.3,5.4,5.4,0,0,1,1-1.44,5.34,5.34,0,0,1,1.31-1,5.61,5.61,0,0,1,1.51-.57,7.2,7.2,0,0,1,1.6-.18,6.93,6.93,0,0,1,2.5.43A4.92,4.92,0,0,1,256.55,35a5.63,5.63,0,0,1,1.13,2,8.72,8.72,0,0,1,.38,2.72V50.49H254V39.71a3.61,3.61,0,0,0-.71-2.43,2.59,2.59,0,0,0-2.08-.82,3.11,3.11,0,0,0-1.16.21,2.85,2.85,0,0,0-.94.62,2.91,2.91,0,0,0-.64,1,4,4,0,0,0-.23,1.4V50.49h-4.09V39.71a3.64,3.64,0,0,0-.69-2.47,2.51,2.51,0,0,0-2-.78,3.32,3.32,0,0,0-1.66.44,5.63,5.63,0,0,0-1.43,1.19v12.4Z"/><path class="cls-1" d="M302.12,26.63l-7.41,23.86h-4l-5.21-16.31a9.77,9.77,0,0,1-.4-1.45c-.06.28-.13.53-.2.78a5.86,5.86,0,0,1-.21.67l-5.26,16.31h-4L268,26.63h3.71a1.62,1.62,0,0,1,1,.27,1.28,1.28,0,0,1,.52.73l4.06,14.28c.09.35.18.73.26,1.14s.17.85.26,1.3c.08-.46.18-.9.28-1.31s.22-.78.34-1.13l4.69-14.28a1.58,1.58,0,0,1,.52-.69,1.45,1.45,0,0,1,.95-.31h1.3a1.46,1.46,0,0,1,.94.28,1.7,1.7,0,0,1,.54.72L292,41.91a19.17,19.17,0,0,1,.63,2.35c.14-.86.3-1.65.48-2.35l4.06-14.28a1.27,1.27,0,0,1,.5-.71,1.64,1.64,0,0,1,1-.29Z"/><path class="cls-1" d="M302,35.92a10,10,0,0,1,7-2.68,6.92,6.92,0,0,1,2.65.49,5.53,5.53,0,0,1,2,1.35,5.81,5.81,0,0,1,1.23,2.07,8,8,0,0,1,.42,2.64v10.7h-1.84a1.84,1.84,0,0,1-.9-.18,1.22,1.22,0,0,1-.49-.7l-.36-1.22a13.26,13.26,0,0,1-1.26,1,6.78,6.78,0,0,1-1.27.74,6.45,6.45,0,0,1-1.41.45,7.73,7.73,0,0,1-1.66.16,6.63,6.63,0,0,1-2-.29,4.26,4.26,0,0,1-1.56-.87,3.84,3.84,0,0,1-1-1.43,5.14,5.14,0,0,1-.36-2,4.08,4.08,0,0,1,.21-1.28,3.88,3.88,0,0,1,.71-1.21,5.76,5.76,0,0,1,1.26-1.09,8,8,0,0,1,1.9-.89,16.9,16.9,0,0,1,2.64-.62,27.35,27.35,0,0,1,3.43-.29v-1a3.71,3.71,0,0,0-.73-2.51,2.63,2.63,0,0,0-2.09-.82,5.16,5.16,0,0,0-1.65.23,7.6,7.6,0,0,0-1.14.52l-.9.52a1.83,1.83,0,0,1-.9.23,1.17,1.17,0,0,1-.73-.22,1.82,1.82,0,0,1-.48-.52Zm9.34,7.34a23.08,23.08,0,0,0-3,.3,7.87,7.87,0,0,0-1.93.57,2.48,2.48,0,0,0-1,.81,1.75,1.75,0,0,0-.32,1,1.78,1.78,0,0,0,.64,1.53,2.72,2.72,0,0,0,1.66.46,4.89,4.89,0,0,0,2.17-.45,6.44,6.44,0,0,0,1.79-1.38Z"/><path class="cls-1" d="M324.54,50.75a4.46,4.46,0,0,1-3.39-1.25A4.82,4.82,0,0,1,320,46.06V36.61h-1.73a.76.76,0,0,1-.56-.22.83.83,0,0,1-.23-.64V34.13l2.72-.44.86-4.62a.89.89,0,0,1,.31-.51,1,1,0,0,1,.6-.18h2.11v5.33h4.52v2.9h-4.52v9.17a1.82,1.82,0,0,0,.39,1.24,1.31,1.31,0,0,0,1.06.45,2,2,0,0,0,.64-.09l.44-.19.34-.19a.58.58,0,0,1,.3-.09.44.44,0,0,1,.29.09,1.34,1.34,0,0,1,.25.27l1.22,2a6.13,6.13,0,0,1-2,1.12A7.73,7.73,0,0,1,324.54,50.75Z"/><path class="cls-1" d="M343.17,37.14a2.42,2.42,0,0,1-.35.36.84.84,0,0,1-.51.13,1.09,1.09,0,0,1-.61-.19L341,37a5.32,5.32,0,0,0-1-.43,4.71,4.71,0,0,0-1.41-.19,4.3,4.3,0,0,0-1.88.39,3.46,3.46,0,0,0-1.34,1.12,4.86,4.86,0,0,0-.8,1.75,10.22,10.22,0,0,0,0,4.75,5.19,5.19,0,0,0,.83,1.77,3.71,3.71,0,0,0,1.32,1.09,4,4,0,0,0,1.75.37,4.34,4.34,0,0,0,1.58-.24,4.53,4.53,0,0,0,1-.53c.28-.19.52-.36.72-.52a1.07,1.07,0,0,1,.69-.24.81.81,0,0,1,.74.38L344.41,48a7.32,7.32,0,0,1-1.47,1.33,8,8,0,0,1-1.64.86,8.82,8.82,0,0,1-1.75.45,12.07,12.07,0,0,1-1.79.13,7.46,7.46,0,0,1-2.95-.58,6.89,6.89,0,0,1-2.43-1.71,8.15,8.15,0,0,1-1.64-2.75,10.64,10.64,0,0,1-.6-3.7,11,11,0,0,1,.53-3.46,7.86,7.86,0,0,1,1.58-2.75A7.17,7.17,0,0,1,334.82,34a8.89,8.89,0,0,1,3.53-.66,8.53,8.53,0,0,1,3.33.61,8.05,8.05,0,0,1,2.56,1.75Z"/><path class="cls-1" d="M351,35.37a8.68,8.68,0,0,1,2.17-1.5,6.4,6.4,0,0,1,2.79-.58,6.13,6.13,0,0,1,2.46.47,5,5,0,0,1,1.79,1.32,5.91,5.91,0,0,1,1.09,2,8.55,8.55,0,0,1,.37,2.6V50.49h-4.08V39.71a3.67,3.67,0,0,0-.7-2.4,2.67,2.67,0,0,0-2.17-.85,4.26,4.26,0,0,0-2,.48,7.18,7.18,0,0,0-1.74,1.3V50.49H347V26H351Z"/><path class="cls-1" d="M388.2,46.82v3.67h-14V26.63h4.44V46.82Z"/><path class="cls-1" d="M390.33,35.92a10,10,0,0,1,7-2.68,6.92,6.92,0,0,1,2.65.49,5.53,5.53,0,0,1,2,1.35,5.81,5.81,0,0,1,1.23,2.07,8,8,0,0,1,.42,2.64v10.7H401.8a1.84,1.84,0,0,1-.9-.18,1.22,1.22,0,0,1-.49-.7l-.36-1.22a13.26,13.26,0,0,1-1.26,1,6.78,6.78,0,0,1-1.27.74,6.45,6.45,0,0,1-1.41.45,7.73,7.73,0,0,1-1.66.16,6.63,6.63,0,0,1-2-.29,4.26,4.26,0,0,1-1.56-.87,3.84,3.84,0,0,1-1-1.43,5.14,5.14,0,0,1-.36-2,4.08,4.08,0,0,1,.21-1.28,3.88,3.88,0,0,1,.71-1.21,5.76,5.76,0,0,1,1.26-1.09,8,8,0,0,1,1.9-.89,16.9,16.9,0,0,1,2.64-.62,27.35,27.35,0,0,1,3.43-.29v-1a3.71,3.71,0,0,0-.73-2.51,2.63,2.63,0,0,0-2.09-.82,5.16,5.16,0,0,0-1.65.23,7.6,7.6,0,0,0-1.14.52l-.9.52a1.83,1.83,0,0,1-.9.23,1.17,1.17,0,0,1-.73-.22,1.82,1.82,0,0,1-.48-.52Zm9.34,7.34a23.08,23.08,0,0,0-3,.3,7.87,7.87,0,0,0-1.93.57,2.48,2.48,0,0,0-1,.81,2,2,0,0,0,.32,2.54,2.72,2.72,0,0,0,1.66.46,4.89,4.89,0,0,0,2.17-.45,6.44,6.44,0,0,0,1.79-1.38Z"/><path class="cls-1" d="M412.88,50.75a4.46,4.46,0,0,1-3.39-1.25,4.82,4.82,0,0,1-1.18-3.44V36.61h-1.73a.76.76,0,0,1-.56-.22.83.83,0,0,1-.23-.64V34.13l2.72-.44.86-4.62a.89.89,0,0,1,.31-.51,1,1,0,0,1,.6-.18h2.11v5.33h4.52v2.9h-4.52v9.17a1.82,1.82,0,0,0,.39,1.24,1.31,1.31,0,0,0,1.06.45,2,2,0,0,0,.64-.09l.44-.19.34-.19a.58.58,0,0,1,.3-.09.44.44,0,0,1,.29.09,1.34,1.34,0,0,1,.25.27l1.22,2a6.13,6.13,0,0,1-2,1.12A7.73,7.73,0,0,1,412.88,50.75Z"/><path class="cls-1" d="M422.52,42.53a7.84,7.84,0,0,0,.46,2.25,4.44,4.44,0,0,0,1,1.57,3.78,3.78,0,0,0,1.41.93,5.21,5.21,0,0,0,1.81.3,5.68,5.68,0,0,0,1.7-.23,7.5,7.5,0,0,0,1.26-.51l.94-.51a1.51,1.51,0,0,1,.78-.23.83.83,0,0,1,.76.38L433.77,48a6.61,6.61,0,0,1-1.52,1.33,8.61,8.61,0,0,1-1.75.86,10.18,10.18,0,0,1-1.87.45,13,13,0,0,1-1.84.13,9.05,9.05,0,0,1-3.28-.58,7.43,7.43,0,0,1-2.64-1.73,8.25,8.25,0,0,1-1.77-2.84,11,11,0,0,1-.64-3.92A9.46,9.46,0,0,1,419,38.4a7.81,7.81,0,0,1,1.61-2.66A7.61,7.61,0,0,1,423.19,34a9,9,0,0,1,6.36-.15,6.4,6.4,0,0,1,2.33,1.5,6.94,6.94,0,0,1,1.52,2.41A8.89,8.89,0,0,1,434,41a2.7,2.7,0,0,1-.19,1.25.84.84,0,0,1-.76.32Zm7.77-2.46a4.89,4.89,0,0,0-.22-1.49,3.49,3.49,0,0,0-.67-1.23,3.08,3.08,0,0,0-1.13-.83,4.3,4.3,0,0,0-4.37.7,4.93,4.93,0,0,0-1.3,2.85Z"/><path class="cls-1" d="M440.85,36.49a7.43,7.43,0,0,1,1.88-2.38,4,4,0,0,1,2.58-.87,3.17,3.17,0,0,1,1.88.51l-.27,3.06a.74.74,0,0,1-.24.42.66.66,0,0,1-.42.12,5.42,5.42,0,0,1-.73-.08,5.22,5.22,0,0,0-.95-.08,3.44,3.44,0,0,0-1.2.19,3.25,3.25,0,0,0-.95.57,4.17,4.17,0,0,0-.75.9,10.5,10.5,0,0,0-.6,1.21V50.49H437V33.56h2.39a1.28,1.28,0,0,1,.87.22,1.24,1.24,0,0,1,.33.8Z"/></g></g><rect class="cls-3" x="18.14" y="35.27" width="55.21" height="10" transform="translate(-15.07 44.14) rotate(-45)"/><rect class="cls-3" x="40.75" y="12.66" width="10" height="55.21" transform="translate(-15.07 44.15) rotate(-45)"/></svg>