<?xml version="1.0" encoding="utf-8"?>
<!-- Generator: Adobe Illustrator 24.0.3, SVG Export Plug-In . SVG Version: 6.00 Build 0)  -->
<svg version="1.1" id="Layer_1" xmlns="http://www.w3.org/2000/svg" xmlns:xlink="http://www.w3.org/1999/xlink" x="0px" y="0px"
	 viewBox="0 0 145 107.3" style="enable-background:new 0 0 145 107.3;" xml:space="preserve">
<style type="text/css">
	.st0{fill:#FFFFFF;}
	.st1{fill:#C74649;}
	.st2{fill:#1196C6;}
</style>
<g>
	<g>
		<g>
			<path class="st0" d="M137.3,55.6H89.6c-4.2,0-7.9-2.5-9.5-6.3c-2-4.8-3.4-7-7.5-7s-5.5,2.1-7.5,7c-1.6,3.8-5.4,6.3-9.5,6.3H7.7
				c-4.3,0-7.7-3.5-7.7-7.7V8.1c0-4.3,3.5-7.7,7.7-7.7h129.5c4.3,0,7.7,3.5,7.7,7.7v39.7C145,52.1,141.5,55.6,137.3,55.6z
				 M72.5,38.6c7.1,0,9.2,5.1,11,9.2c1,2.4,3.4,4,6.1,4h47.7c2.2,0,4-1.8,4-4V8.1c0-2.2-1.8-4-4-4H7.7c-2.2,0-4,1.8-4,4v39.7
				c0,2.2,1.8,4,4,4h47.7c2.7,0,5.1-1.6,6.1-4C63.3,43.7,65.4,38.6,72.5,38.6z"/>
		</g>
		<g>
			<path class="st0" d="M34.9,73.2h-0.2c-0.7,0-1.3,0.4-1.7,1L20.7,92.2L8.4,74.1c-0.5-0.6-1.1-0.9-1.7-0.9H6.5
				c-1,0-1.8,0.8-1.8,1.8v30.7c0,1,0.8,1.8,1.8,1.8c1,0,1.8-0.8,1.8-1.8V80.3l10.9,15.8c0.8,1.2,2.3,1.2,3.1,0l10.9-15.9v25.4
				c0,1,0.8,1.8,1.8,1.8c1,0,1.8-0.8,1.8-1.8V75C36.8,74,35.9,73.2,34.9,73.2z"/>
			<path class="st0" d="M71.9,73.2c-0.7,0-1.4,0.5-1.8,1.3l-12,28l-11.9-28c-0.4-0.9-1-1.4-1.8-1.4c-1.1,0-1.8,0.9-1.8,1.8
				c0,0.3,0,0.5,0.1,0.8L56,106.2c0.4,1,1.1,1.4,2.1,1.4c0.9,0,1.6-0.5,2-1.4l13.4-30.6c0.2-0.3,0.2-0.5,0.2-0.7
				C73.7,74,72.9,73.2,71.9,73.2z"/>
			<path class="st0" d="M90.9,73.3h-9.7c-1,0-1.8,0.8-1.8,1.8v30.3c0,1,0.8,1.8,1.8,1.8h9.7c10.4,0,18-7.1,18-17.1
				C109,80.4,101.4,73.3,90.9,73.3z M90.9,103.9h-7.8v-27h7.8c8.3,0,14.3,5.7,14.3,13.6C105.2,98.3,99.3,103.9,90.9,103.9z"/>
			<path class="st0" d="M136.4,89.7c2.9-1.7,4.5-4.3,4.5-7.7c0-2.2-0.8-4.1-2.3-5.6c-2-2-5.2-3.1-9-3.1h-12.3c-1,0-1.8,0.8-1.8,1.8
				v30.3c0,1,0.8,1.8,1.8,1.8h13c7.5,0,12.4-3.8,12.4-9.7C142.8,94,140.6,91.2,136.4,89.7z M130.5,103.9h-11.3V91.9h10.5
				c3.5,0,9.3,0.7,9.3,5.8C139,101.5,135.8,103.9,130.5,103.9z M119.2,88.5V76.8h10.4c4.7,0,7.6,2,7.6,5.5c0,3.8-3,6.1-7.8,6.1
				H119.2z"/>
		</g>
	</g>
	<g>
		<g>
			<path class="st1" d="M21.7,47.3c-0.4,0-0.8-0.1-1.2-0.4c-0.6-0.4-0.9-1.2-0.8-2l2.1-12.1L13,24.2c-0.5-0.5-0.7-1.3-0.5-2.1
				c0.2-0.7,0.9-1.3,1.6-1.4l12.2-1.8l5.4-11c0.3-0.7,1-1.1,1.8-1.1s1.5,0.4,1.8,1.1l5.4,11l12.2,1.8c0.8,0.1,1.4,0.6,1.6,1.4
				c0.2,0.7,0,1.5-0.5,2.1l-8.8,8.6l2.1,12.1c0.1,0.8-0.2,1.5-0.8,2c-0.6,0.4-1.4,0.5-2.1,0.2l-10.9-5.7L22.6,47
				C22.3,47.2,22,47.3,21.7,47.3z M33.5,37.1c0.3,0,0.6,0.1,0.9,0.2l8.2,4.3l-1.6-9.1c-0.1-0.6,0.1-1.3,0.6-1.8l6.6-6.5l-9.2-1.3
				c-0.7-0.1-1.2-0.5-1.5-1.1l-4.1-8.3l-4.1,8.3c-0.3,0.6-0.9,1-1.5,1.1l-9.2,1.3l6.6,6.5c0.5,0.5,0.7,1.1,0.6,1.8l-1.6,9.1l8.2-4.3
				C32.9,37.1,33.2,37.1,33.5,37.1z"/>
		</g>
		<g>
			<path class="st2" d="M123.2,47.3c-0.3,0-0.6-0.1-0.9-0.2l-10.9-5.7L100.5,47c-0.7,0.4-1.5,0.3-2.1-0.2c-0.6-0.4-0.9-1.2-0.8-2
				l2.1-12.1l-8.8-8.6c-0.5-0.5-0.7-1.3-0.5-2.1c0.2-0.7,0.9-1.3,1.6-1.4l12.2-1.8l5.4-11c0.3-0.7,1-1.1,1.8-1.1s1.5,0.4,1.8,1.1
				l5.4,11l12.2,1.8c0.8,0.1,1.4,0.6,1.6,1.4c0.2,0.7,0,1.5-0.5,2.1l-8.8,8.6l2.1,12.1c0.1,0.8-0.2,1.5-0.8,2
				C124,47.1,123.6,47.3,123.2,47.3z M96.6,24.2l6.6,6.5c0.5,0.5,0.7,1.1,0.6,1.8l-1.6,9.1l8.2-4.3c0.6-0.3,1.3-0.3,1.9,0l8.2,4.3
				l-1.6-9.1c-0.1-0.6,0.1-1.3,0.6-1.8l6.6-6.5l-9.2-1.3c-0.7-0.1-1.2-0.5-1.5-1.1l-4.1-8.3l-4.1,8.3c-0.3,0.6-0.9,1-1.5,1.1
				L96.6,24.2z"/>
		</g>
	</g>
</g>
</svg>
