<?xml version="1.0" encoding="utf-8"?>
<!-- Generator: Adobe Illustrator 24.0.3, SVG Export Plug-In . SVG Version: 6.00 Build 0)  -->
<svg version="1.1" id="Layer_1" xmlns="http://www.w3.org/2000/svg" xmlns:xlink="http://www.w3.org/1999/xlink" x="0px" y="0px"
	 viewBox="0 0 145 107.3" style="enable-background:new 0 0 145 107.3;" xml:space="preserve">
<style type="text/css">
	.st0{fill:#FFFFFF;}
	.st1{fill:#C74649;}
	.st2{fill:#1196C6;}
</style>
<path class="st0" d="M137.2,55.2H89.6c-4.2,0-7.9-2.5-9.5-6.3C78,44.1,76.7,42,72.5,42S67,44.1,65,48.9c-1.6,3.8-5.4,6.3-9.5,6.3
	H7.8c-4.3,0-7.7-3.5-7.8-7.8V7.8C0,3.5,3.5,0,7.8,0h129.5c4.3,0,7.7,3.5,7.8,7.8v39.7C145,51.8,141.5,55.2,137.2,55.2z M72.5,38.2
	c7.1,0,9.2,5.1,11,9.2c1,2.4,3.4,4,6.1,4h47.7c2.2,0,4-1.8,4-4V7.8c0-2.2-1.8-4-4-4H7.8c-2.2,0-4,1.8-4,4v39.7c0,2.2,1.8,4,4,4h47.7
	c2.7,0,5.1-1.6,6.1-4C63.3,43.4,65.4,38.3,72.5,38.2L72.5,38.2z"/>
<path class="st1" d="M51.2,43.9H15.8c-2.1,0-3.8-1.7-3.8-3.8l0,0V15.2c0-2.1,1.7-3.8,3.8-3.8l0,0h35.5c2.1,0,3.8,1.7,3.8,3.8v24.9
	C55,42.2,53.4,43.9,51.2,43.9z"/>
<path class="st2" d="M129.2,43.9H93.8c-2.1,0-3.8-1.7-3.8-3.8V15.2c0-2.1,1.7-3.8,3.8-3.8h35.5c2.1,0,3.8,1.7,3.8,3.8v24.9
	C133,42.2,131.3,43.9,129.2,43.9L129.2,43.9z"/>
<path class="st0" d="M34.9,72.9h-0.2c-0.7,0-1.4,0.4-1.7,1l-12.3,18L8.4,73.8c-0.4-0.6-1-1-1.7-1H6.5c-1,0-1.9,0.9-1.8,1.9v30.7
	c0.1,1,0.9,1.7,1.9,1.7c0.9-0.1,1.6-0.8,1.7-1.7V79.9l10.9,15.8c0.5,0.9,1.6,1.1,2.5,0.6c0.3-0.2,0.5-0.4,0.6-0.6l10.9-15.8v25.4
	c-0.1,1,0.7,1.9,1.7,2s1.9-0.7,2-1.7c0-0.1,0-0.2,0-0.3V74.7C36.7,73.7,35.9,72.9,34.9,72.9z"/>
<path class="st0" d="M71.9,72.8c-0.8,0-1.5,0.6-1.8,1.3l-12,28l-11.9-28c-0.3-0.8-1-1.3-1.8-1.4c-1,0-1.8,0.8-1.8,1.8
	c0,0.3,0,0.5,0.2,0.8L56,105.9c0.3,0.9,1.2,1.5,2.1,1.4c0.9,0,1.7-0.6,2-1.4l13.4-30.6c0.1-0.2,0.2-0.5,0.2-0.8
	C73.7,73.6,72.9,72.8,71.9,72.8z"/>
<path class="st0" d="M90.9,73h-9.7c-1,0-1.8,0.8-1.8,1.8v30.3c0,1,0.8,1.8,1.8,1.8h9.7c10.4,0,18-7.2,18-17.1S101.4,73,90.9,73z
	 M90.9,103.5H83v-27h7.8c8.3,0,14.3,5.7,14.3,13.6S99.3,103.5,90.9,103.5z"/>
<path class="st0" d="M136.4,89.4c2.8-1.5,4.6-4.5,4.5-7.7c0-2.1-0.8-4.1-2.3-5.6c-2-2-5.2-3.1-9-3.1h-12.3c-1,0-1.8,0.8-1.8,1.8
	v30.3c0,1,0.8,1.8,1.8,1.8h13c7.5,0,12.4-3.8,12.4-9.7C142.8,93.6,140.6,90.9,136.4,89.4z M130.5,103.5h-11.3V91.6h10.5
	c3.5,0,9.4,0.7,9.4,5.8C139,101.2,135.8,103.5,130.5,103.5L130.5,103.5z M119.2,88.1V76.5h10.4c4.7,0,7.6,2,7.6,5.5
	c0,3.8-3,6.1-7.8,6.1H119.2z"/>
</svg>
