<svg id="Layer_1" data-name="Layer 1" xmlns="http://www.w3.org/2000/svg" viewBox="0 0 145 107.3"><defs><style>.cls-1{fill:#fff;}.cls-2{fill:#c74649;}.cls-3{fill:#1196c6;}</style></defs><title>mvdb_logo_watch-later2</title><path class="cls-1" d="M137.25,55.56H89.58a10.3,10.3,0,0,1-9.53-6.29c-2-4.83-3.38-7-7.55-7s-5.5,2.12-7.55,7a10.3,10.3,0,0,1-9.53,6.29H7.75A7.75,7.75,0,0,1,0,47.82V8.08A7.76,7.76,0,0,1,7.75.33h129.5A7.76,7.76,0,0,1,145,8.08V47.82A7.75,7.75,0,0,1,137.25,55.56ZM72.5,38.6c7.07,0,9.24,5.11,11,9.22a6.59,6.59,0,0,0,6.1,4h47.67a4,4,0,0,0,4-4V8.08a4,4,0,0,0-4-4H7.75a4,4,0,0,0-4,4V47.82a4,4,0,0,0,4,4H55.42a6.59,6.59,0,0,0,6.1-4C63.26,43.71,65.43,38.6,72.5,38.6Z"/><path class="cls-1" d="M34.91,73.2h-.23a2.08,2.08,0,0,0-1.73,1L20.69,92.23,8.4,74.14a2.11,2.11,0,0,0-1.7-.94H6.46A1.87,1.87,0,0,0,4.62,75v30.69a1.8,1.8,0,1,0,3.59,0V80.26L19.09,96.11a1.8,1.8,0,0,0,3.09,0l10.9-15.86v25.43a1.84,1.84,0,1,0,3.67,0V75A1.86,1.86,0,0,0,34.91,73.2Z"/><path class="cls-1" d="M71.89,73.15a2,2,0,0,0-1.79,1.31l-12,28.05-11.92-28a2,2,0,0,0-1.84-1.37,1.87,1.87,0,0,0-1.84,1.79,1.45,1.45,0,0,0,.15.77L56,106.22a2.14,2.14,0,0,0,2.11,1.45,2.1,2.1,0,0,0,2-1.45L73.52,75.64a1.4,1.4,0,0,0,.16-.74A1.79,1.79,0,0,0,71.89,73.15Z"/><path class="cls-1" d="M90.94,73.34H81.25a1.87,1.87,0,0,0-1.84,1.84V105.5a1.87,1.87,0,0,0,1.84,1.84h9.69c10.45,0,18-7.15,18-17.1C109,80.45,101.39,73.34,90.94,73.34Zm0,30.51H83.09v-27h7.85c8.26,0,14.26,5.68,14.26,13.6S99.34,103.85,90.94,103.85Z"/><path class="cls-1" d="M136.43,89.74a8.49,8.49,0,0,0,4.5-7.73,7.63,7.63,0,0,0-2.28-5.59c-2-2-5.17-3.08-9-3.08H117.38a1.86,1.86,0,0,0-1.83,1.84V105.5a1.86,1.86,0,0,0,1.83,1.84h13c7.52,0,12.37-3.75,12.37-9.65C142.76,94,140.58,91.24,136.43,89.74Zm-5.94,14.11H119.22V91.94h10.47c3.49,0,9.35.75,9.35,5.84C139,101.52,135.76,103.85,130.49,103.85Zm-11.27-15.4V76.83h10.42c4.74,0,7.57,2,7.57,5.51,0,3.77-3,6.11-7.8,6.11Z"/><path class="cls-2" d="M49.82,25.1H35.51V10.8a2,2,0,1,0-4,0V25.1H17.21a2,2,0,0,0,0,4h14.3V43.41a2,2,0,0,0,4,0V29.1H49.82a2,2,0,0,0,0-4Z"/><path class="cls-3" d="M127.68,25.1h-14.3V10.8a2,2,0,1,0-4,0V25.1H95.07a2,2,0,0,0,0,4h14.31V43.41a2,2,0,0,0,4,0V29.1h14.3a2,2,0,0,0,0-4Z"/></svg>