<svg id="Layer_1" data-name="Layer 1" xmlns="http://www.w3.org/2000/svg" viewBox="0 0 145 107.33"><defs><style>.cls-1{fill:#fff;}.cls-2{fill:#c74649;}.cls-3{fill:#1196c6;}</style></defs><title>mvdb_logo</title><path class="cls-1" d="M137.25,55.23H89.58a10.3,10.3,0,0,1-9.53-6.29C78,44.1,76.67,42,72.5,42S67,44.1,65,48.94a10.3,10.3,0,0,1-9.53,6.29H7.75A7.76,7.76,0,0,1,0,47.48V7.75A7.76,7.76,0,0,1,7.75,0h129.5A7.76,7.76,0,0,1,145,7.75V47.48A7.76,7.76,0,0,1,137.25,55.23Zm-64.75-17c7.07,0,9.24,5.12,11,9.23a6.59,6.59,0,0,0,6.1,4h47.67a4,4,0,0,0,4-4V7.75a4,4,0,0,0-4-4H7.75a4,4,0,0,0-4,4V47.48a4,4,0,0,0,4,4H55.42a6.59,6.59,0,0,0,6.1-4C63.26,43.38,65.43,38.26,72.5,38.26Z"/><path class="cls-2" d="M53.24,45.66H13.77a4.2,4.2,0,0,1-4.2-4.2V13.77a4.2,4.2,0,0,1,4.2-4.2H53.24a4.21,4.21,0,0,1,4.2,4.2V41.46A4.21,4.21,0,0,1,53.24,45.66ZM13.77,13.29a.47.47,0,0,0-.48.48V41.46a.47.47,0,0,0,.48.48H53.24a.47.47,0,0,0,.47-.48V13.77a.47.47,0,0,0-.47-.48Z"/><path class="cls-3" d="M131.23,45.66H91.76a4.21,4.21,0,0,1-4.2-4.2V13.77a4.21,4.21,0,0,1,4.2-4.2h39.47a4.2,4.2,0,0,1,4.2,4.2V41.46A4.2,4.2,0,0,1,131.23,45.66ZM91.76,13.29a.47.47,0,0,0-.47.48V41.46a.47.47,0,0,0,.47.48h39.47a.47.47,0,0,0,.48-.48V13.77a.47.47,0,0,0-.48-.48Z"/><path class="cls-1" d="M34.91,72.86h-.23a2.07,2.07,0,0,0-1.73,1l-12.26,18L8.4,73.81a2.1,2.1,0,0,0-1.7-1H6.46A1.87,1.87,0,0,0,4.62,74.7v30.7a1.8,1.8,0,0,0,3.59,0V79.93L19.09,95.78a1.8,1.8,0,0,0,3.09,0l10.9-15.85v25.42a1.84,1.84,0,1,0,3.67,0V74.7A1.87,1.87,0,0,0,34.91,72.86Z"/><path class="cls-1" d="M71.89,72.82a2,2,0,0,0-1.79,1.31l-12,28.05-11.92-28a2,2,0,0,0-1.84-1.36,1.86,1.86,0,0,0-1.84,1.79,1.44,1.44,0,0,0,.15.76L56,105.88a2.14,2.14,0,0,0,2.11,1.45,2.1,2.1,0,0,0,2-1.45L73.52,75.31a1.45,1.45,0,0,0,.16-.75A1.79,1.79,0,0,0,71.89,72.82Z"/><path class="cls-1" d="M90.94,73H81.25a1.87,1.87,0,0,0-1.84,1.84v30.33A1.87,1.87,0,0,0,81.25,107h9.69c10.45,0,18-7.15,18-17.09S101.39,73,90.94,73Zm0,30.52H83.09v-27h7.85c8.26,0,14.26,5.68,14.26,13.61S99.34,103.52,90.94,103.52Z"/><path class="cls-1" d="M136.43,89.41a8.5,8.5,0,0,0,4.5-7.74,7.62,7.62,0,0,0-2.28-5.58c-2-2-5.17-3.09-9-3.09H117.38a1.87,1.87,0,0,0-1.83,1.84v30.33a1.86,1.86,0,0,0,1.83,1.83h13c7.52,0,12.37-3.75,12.37-9.65C142.76,93.63,140.58,90.9,136.43,89.41Zm-5.94,14.11H119.22V91.61h10.47c3.49,0,9.35.74,9.35,5.83C139,101.19,135.76,103.52,130.49,103.52Zm-11.27-15.4V76.49h10.42c4.74,0,7.57,2,7.57,5.51,0,3.78-3,6.12-7.8,6.12Z"/></svg>