<?xml version="1.0" encoding="utf-8"?>
<!-- Generator: Adobe Illustrator 24.0.3, SVG Export Plug-In . SVG Version: 6.00 Build 0)  -->
<svg version="1.1" id="Layer_1" xmlns="http://www.w3.org/2000/svg" xmlns:xlink="http://www.w3.org/1999/xlink" x="0px" y="0px"
	 viewBox="0 0 145 107.3" style="enable-background:new 0 0 145 107.3;" xml:space="preserve">
<style type="text/css">
	.st0{fill:#FFFFFF;}
	.st1{fill:#C74649;}
	.st2{fill:#1196C6;}
</style>
<g>
	<g>
		<g>
			<g>
				<path class="st0" d="M137.3,55.6H89.6c-4.2,0-7.9-2.5-9.5-6.3c-2-4.8-3.4-7-7.5-7s-5.5,2.1-7.5,7c-1.6,3.8-5.4,6.3-9.5,6.3H7.7
					c-4.3,0-7.7-3.5-7.7-7.7V8.1c0-4.3,3.5-7.7,7.7-7.7h129.5c4.3,0,7.7,3.5,7.7,7.7v39.7C145,52.1,141.5,55.6,137.3,55.6z
					 M72.5,38.6c7.1,0,9.2,5.1,11,9.2c1,2.4,3.4,4,6.1,4h47.7c2.2,0,4-1.8,4-4V8.1c0-2.2-1.8-4-4-4H7.7c-2.2,0-4,1.8-4,4v39.7
					c0,2.2,1.8,4,4,4h47.7c2.7,0,5.1-1.6,6.1-4C63.3,43.7,65.4,38.6,72.5,38.6z"/>
			</g>
		</g>
		<g>
			<g>
				<path class="st0" d="M34.9,73.2h-0.2c-0.7,0-1.3,0.4-1.7,1L20.7,92.2L8.4,74.1c-0.5-0.6-1.1-0.9-1.7-0.9H6.5
					c-1,0-1.8,0.8-1.8,1.8v30.7c0,1,0.8,1.8,1.8,1.8c1,0,1.8-0.8,1.8-1.8V80.3l10.9,15.8c0.8,1.2,2.3,1.2,3.1,0l10.9-15.9v25.4
					c0,1,0.8,1.8,1.8,1.8c1,0,1.8-0.8,1.8-1.8V75C36.8,74,35.9,73.2,34.9,73.2z"/>
			</g>
			<g>
				<path class="st0" d="M71.9,73.2c-0.7,0-1.4,0.5-1.8,1.3l-12,28l-11.9-28c-0.4-0.9-1-1.4-1.8-1.4c-1.1,0-1.8,0.9-1.8,1.8
					c0,0.3,0,0.5,0.1,0.8L56,106.2c0.4,1,1.1,1.4,2.1,1.4c0.9,0,1.6-0.5,2-1.4l13.4-30.6c0.2-0.3,0.2-0.5,0.2-0.7
					C73.7,74,72.9,73.2,71.9,73.2z"/>
			</g>
			<g>
				<path class="st0" d="M90.9,73.3h-9.7c-1,0-1.8,0.8-1.8,1.8v30.3c0,1,0.8,1.8,1.8,1.8h9.7c10.4,0,18-7.1,18-17.1
					C109,80.4,101.4,73.3,90.9,73.3z M90.9,103.9h-7.8v-27h7.8c8.3,0,14.3,5.7,14.3,13.6C105.2,98.3,99.3,103.9,90.9,103.9z"/>
			</g>
			<g>
				<path class="st0" d="M136.4,89.7c2.9-1.7,4.5-4.3,4.5-7.7c0-2.2-0.8-4.1-2.3-5.6c-2-2-5.2-3.1-9-3.1h-12.3c-1,0-1.8,0.8-1.8,1.8
					v30.3c0,1,0.8,1.8,1.8,1.8h13c7.5,0,12.4-3.8,12.4-9.7C142.8,94,140.6,91.2,136.4,89.7z M130.5,103.9h-11.3V91.9h10.5
					c3.5,0,9.3,0.7,9.3,5.8C139,101.5,135.8,103.9,130.5,103.9z M119.2,88.5V76.8h10.4c4.7,0,7.6,2,7.6,5.5c0,3.8-3,6.1-7.8,6.1
					H119.2z"/>
			</g>
		</g>
	</g>
	<g>
		<g>
			<path class="st1" d="M33.5,45.4c0,0-0.1,0-0.1,0c-0.6,0-1.2-0.3-1.5-0.7c-1.9-1.4-8.9-6.7-15-12.7c-3.5-3.5-5-9.7-3.4-14.4
				c1.3-3.9,4.5-6.3,9-6.9c3.4-0.4,7.2,0.7,9.7,2.9c0.5,0.4,0.9,0.8,1.2,1.3c0.4-0.5,0.8-0.9,1.2-1.3c2.5-2.2,6.3-3.3,9.7-2.9
				c4.5,0.6,7.7,3,9,6.9c1.6,4.7,0.1,10.9-3.4,14.4c-6,6-13.1,11.3-15,12.7C34.6,45.1,34,45.4,33.5,45.4z M24,14.5
				c-0.4,0-0.7,0-1.1,0.1c-3,0.4-4.9,1.8-5.7,4.3c-1.1,3.2,0,7.8,2.4,10.3c5.1,5.1,11.2,9.8,13.7,11.8c2.5-1.9,8.6-6.7,13.7-11.8
				c2.4-2.4,3.5-7,2.4-10.3c-0.8-2.4-2.8-3.9-5.7-4.3c-2.3-0.3-4.8,0.4-6.5,1.9c-0.9,0.8-1.9,2-1.9,3.9c0,1.1-0.9,2-2,2s-2-0.9-2-2
				c0-1.9-1-3.1-1.9-3.9C28.1,15.2,26.1,14.5,24,14.5z"/>
		</g>
		<g>
			<path class="st2" d="M111.5,45.4c0,0-0.1,0-0.1,0c-0.6,0-1.2-0.3-1.5-0.7c-1.9-1.4-8.9-6.7-15-12.7c-3.5-3.5-5-9.7-3.4-14.4
				c1.3-3.9,4.5-6.3,9-6.9c3.4-0.4,7.2,0.7,9.7,2.9c0.5,0.4,0.9,0.8,1.2,1.3c0.4-0.5,0.8-0.9,1.2-1.3c2.5-2.2,6.3-3.3,9.7-2.9
				c4.5,0.6,7.7,3,9,6.9c1.6,4.7,0.1,10.9-3.4,14.4c-6,6-13.1,11.3-15,12.7C112.7,45.1,112.1,45.4,111.5,45.4z M102.1,14.5
				c-0.4,0-0.7,0-1.1,0.1c-3,0.4-4.9,1.8-5.7,4.3c-1.1,3.2,0,7.8,2.4,10.3c5.1,5.1,11.2,9.8,13.7,11.8c2.5-1.9,8.6-6.7,13.7-11.8
				c2.4-2.4,3.5-7,2.4-10.3c-0.8-2.4-2.8-3.9-5.7-4.3c-2.3-0.3-4.8,0.4-6.5,1.9c-0.9,0.8-1.9,2-1.9,3.9c0,1.1-0.9,2-2,2s-2-0.9-2-2
				c0-1.9-1-3.1-1.9-3.9C106.1,15.2,104.1,14.5,102.1,14.5z"/>
		</g>
	</g>
</g>
</svg>
