<?xml version="1.0" encoding="utf-8"?>
<!-- Generator: Adobe Illustrator 24.0.3, SVG Export Plug-In . SVG Version: 6.00 Build 0)  -->
<svg version="1.1" id="Layer_1" xmlns="http://www.w3.org/2000/svg" xmlns:xlink="http://www.w3.org/1999/xlink" x="0px" y="0px"
	 viewBox="0 0 25 20.8" style="enable-background:new 0 0 25 20.8;" xml:space="preserve">
<style type="text/css">
	.st0{fill:#C74649;}
</style>
<title>btn</title>
<path class="st0" d="M12.6,20.8l-0.1-0.1l-0.1,0.1c-3.6-2.6-6.9-5.5-10.1-8.6c-2-2-2.9-5.7-2-8.4c0.5-1.5,1.8-3.4,5-3.8
	c2-0.2,4,0.3,5.5,1.6c0.7,0.6,1.3,1.5,1.6,2.4c0.3-0.9,0.8-1.8,1.6-2.4c1.5-1.3,3.5-1.9,5.5-1.6c3.2,0.4,4.5,2.3,5,3.8
	c0.9,2.7,0,6.3-2,8.4C19.5,15.3,16.1,18.2,12.6,20.8z M6.3,0.4c-0.3,0-0.6,0-0.9,0.1C2.4,0.8,1.2,2.6,0.7,4c-0.9,2.5,0,6,1.9,8
	c3.1,3,6.4,5.8,9.9,8.4c3.5-2.6,6.8-5.4,9.9-8.4c1.9-1.9,2.7-5.4,1.9-8c-0.5-1.4-1.7-3.2-4.7-3.6c-1.9-0.2-3.8,0.3-5.2,1.5
	c-1,0.8-1.6,2.1-1.6,3.4h-0.4c0-1.3-0.6-2.6-1.6-3.4C9.4,0.9,7.9,0.4,6.3,0.4L6.3,0.4z"/>
</svg>
