<svg id="Layer_1" data-name="Layer 1" xmlns="http://www.w3.org/2000/svg" viewBox="0 0 423.35 80.54"><defs><style>.cls-1{fill:#fff;}.cls-2{fill:#c74649;}.cls-3{isolation:isolate;}</style></defs><title>btn</title><path class="cls-1" d="M383.19,80.54c-1,0-2-.05-3.19-.14H43.31c-1.14.09-2.18.14-3.15.14A40.16,40.16,0,0,1,40,.22V0H383.82V.23a40.16,40.16,0,0,1-.63,80.31ZM380,79.65c1.19.09,2.21.14,3.16.14A39.41,39.41,0,0,0,383.44,1h-.37V.75H40.79V1h-.63a39.41,39.41,0,0,0,0,78.82c1,0,2-.05,3.13-.14Z"/><path class="cls-2" d="M46,68.08l-.21-.29-.21.29a226.88,226.88,0,0,1-23.6-20c-4.72-4.72-6.75-13.32-4.62-19.58,1.21-3.56,4.25-8,11.81-9a16.84,16.84,0,0,1,13,3.85,12.09,12.09,0,0,1,3.64,5.46,12.07,12.07,0,0,1,3.63-5.46,16.86,16.86,0,0,1,13-3.85c7.57,1,10.6,5.44,11.81,9,2.13,6.26.1,14.86-4.62,19.58A226.16,226.16,0,0,1,46,68.08ZM31.21,20.35a14.19,14.19,0,0,0-1.95.13c-7,.92-9.87,5-11,8.32-2,5.93-.1,14.08,4.38,18.56A225.63,225.63,0,0,0,45.75,67a227.91,227.91,0,0,0,23.1-19.64c4.47-4.48,6.39-12.63,4.37-18.56-1.12-3.29-3.93-7.4-11-8.32A15.83,15.83,0,0,0,50,24.08a10.53,10.53,0,0,0-3.79,8h-1a10.54,10.54,0,0,0-3.8-8A15.74,15.74,0,0,0,31.21,20.35Z"/><g id="December_18_2019" data-name="December 18 2019"><g class="cls-3"><path class="cls-1" d="M99.87,30.16v7.06h8.95v3.55H99.87v9.72H95.42V26.63h15v3.53Z"/><path class="cls-1" d="M110.83,35.92a10,10,0,0,1,7-2.68,6.92,6.92,0,0,1,2.65.49,5.45,5.45,0,0,1,2,1.35,5.81,5.81,0,0,1,1.23,2.07,8,8,0,0,1,.42,2.64v10.7H122.3a1.84,1.84,0,0,1-.9-.18,1.22,1.22,0,0,1-.49-.7l-.36-1.22a13.26,13.26,0,0,1-1.26,1,6.78,6.78,0,0,1-1.27.74,6.45,6.45,0,0,1-1.41.45,7.73,7.73,0,0,1-1.66.16,6.63,6.63,0,0,1-2-.29,4.26,4.26,0,0,1-1.56-.87,3.84,3.84,0,0,1-1-1.43,5.14,5.14,0,0,1-.36-2,4.08,4.08,0,0,1,.21-1.28,3.88,3.88,0,0,1,.71-1.21,5.76,5.76,0,0,1,1.26-1.09,8,8,0,0,1,1.9-.89,16.9,16.9,0,0,1,2.64-.62,27.35,27.35,0,0,1,3.43-.29v-1a3.71,3.71,0,0,0-.73-2.51,2.63,2.63,0,0,0-2.09-.82,5.16,5.16,0,0,0-1.65.23,7.6,7.6,0,0,0-1.14.52l-.9.52a1.83,1.83,0,0,1-.9.23,1.17,1.17,0,0,1-.73-.22,1.82,1.82,0,0,1-.48-.52Zm9.34,7.34a23.08,23.08,0,0,0-3,.3,7.87,7.87,0,0,0-1.93.57,2.48,2.48,0,0,0-1,.81,2,2,0,0,0,.32,2.54,2.74,2.74,0,0,0,1.66.46,4.89,4.89,0,0,0,2.17-.45,6.44,6.44,0,0,0,1.79-1.38Z"/><path class="cls-1" d="M142.84,33.56l-6.72,16.93h-3.69l-6.72-16.93h3.37a1.31,1.31,0,0,1,.76.21,1,1,0,0,1,.41.55l3.27,9c.17.53.33,1,.46,1.55s.25,1,.34,1.52c.11-.51.24-1,.37-1.52s.29-1,.48-1.55l3.33-9a1.12,1.12,0,0,1,.41-.55,1.21,1.21,0,0,1,.71-.21Z"/><path class="cls-1" d="M152,33.29a9.39,9.39,0,0,1,3.43.61,7.4,7.4,0,0,1,4.33,4.47,11.43,11.43,0,0,1,0,7.25A7.82,7.82,0,0,1,158,48.37a7.35,7.35,0,0,1-2.64,1.75,9.19,9.19,0,0,1-3.43.61,9.33,9.33,0,0,1-3.45-.61,7.27,7.27,0,0,1-2.64-1.75,7.7,7.7,0,0,1-1.7-2.75,11.08,11.08,0,0,1,0-7.25,7.45,7.45,0,0,1,4.34-4.47A9.54,9.54,0,0,1,152,33.29Zm0,14.31a3.61,3.61,0,0,0,3.13-1.42,7.1,7.1,0,0,0,1-4.16,7.15,7.15,0,0,0-1-4.17A3.57,3.57,0,0,0,152,36.41a3.62,3.62,0,0,0-3.17,1.44,7.13,7.13,0,0,0-1,4.17,7,7,0,0,0,1,4.15A3.64,3.64,0,0,0,152,47.6Z"/><path class="cls-1" d="M178,33.56V50.49h-2.5a1,1,0,0,1-1-.75l-.28-1.35a9.38,9.38,0,0,1-2.29,1.71,6.4,6.4,0,0,1-3,.65,6.08,6.08,0,0,1-2.45-.47A4.94,4.94,0,0,1,164.73,49a5.71,5.71,0,0,1-1.09-2,8.51,8.51,0,0,1-.37-2.6V33.56h4.07V44.31a3.58,3.58,0,0,0,.72,2.4,2.64,2.64,0,0,0,2.15.85,4.19,4.19,0,0,0,2-.47,6.75,6.75,0,0,0,1.75-1.29V33.56Z"/><path class="cls-1" d="M185.89,36.49a7.3,7.3,0,0,1,1.88-2.38,4,4,0,0,1,2.57-.87,3.15,3.15,0,0,1,1.88.51L192,36.81a.88.88,0,0,1-.24.42.7.7,0,0,1-.42.12,5.53,5.53,0,0,1-.74-.08,5.12,5.12,0,0,0-.94-.08,3.45,3.45,0,0,0-1.21.19,3.38,3.38,0,0,0-.95.57,3.87,3.87,0,0,0-.74.9,8,8,0,0,0-.6,1.21V50.49H182V33.56h2.39a1.33,1.33,0,0,1,.88.22,1.36,1.36,0,0,1,.33.8Z"/><path class="cls-1" d="M199.14,28.62a2.39,2.39,0,0,1-.22,1,2.58,2.58,0,0,1-.57.81,2.68,2.68,0,0,1-1.85.76,2.39,2.39,0,0,1-1-.21,2.46,2.46,0,0,1-.82-.55,2.7,2.7,0,0,1-.55-.81,2.38,2.38,0,0,1-.21-1,2.52,2.52,0,0,1,.21-1,2.79,2.79,0,0,1,.55-.83,2.62,2.62,0,0,1,.82-.55,2.38,2.38,0,0,1,1-.2,2.51,2.51,0,0,1,1,.2,2.62,2.62,0,0,1,1.4,1.38A2.53,2.53,0,0,1,199.14,28.62Zm-.57,4.94V50.49h-4.09V33.56Z"/><path class="cls-1" d="M208.38,50.75A4.47,4.47,0,0,1,205,49.5a4.82,4.82,0,0,1-1.18-3.44V36.61h-1.73a.78.78,0,0,1-.56-.22.83.83,0,0,1-.23-.64V34.13l2.72-.44.86-4.62a.94.94,0,0,1,.31-.51,1,1,0,0,1,.6-.18h2.11v5.33h4.52v2.9h-4.52v9.17a1.82,1.82,0,0,0,.39,1.24,1.33,1.33,0,0,0,1.06.45,2,2,0,0,0,.64-.09l.44-.19.34-.19a.58.58,0,0,1,.3-.09.49.49,0,0,1,.3.09,1.73,1.73,0,0,1,.24.27l1.22,2a6.13,6.13,0,0,1-2,1.12A7.71,7.71,0,0,1,208.38,50.75Z"/><path class="cls-1" d="M218,42.53a8.2,8.2,0,0,0,.46,2.25,4.59,4.59,0,0,0,1,1.57,3.94,3.94,0,0,0,1.41.93,5.25,5.25,0,0,0,1.81.3,5.75,5.75,0,0,0,1.71-.23,7.73,7.73,0,0,0,1.25-.51l.94-.51a1.51,1.51,0,0,1,.78-.23.83.83,0,0,1,.76.38L229.26,48a6.78,6.78,0,0,1-1.51,1.33,8.69,8.69,0,0,1-1.76.86,10,10,0,0,1-1.87.45,12.92,12.92,0,0,1-1.83.13,9.07,9.07,0,0,1-3.29-.58,7.43,7.43,0,0,1-2.64-1.73,8.23,8.23,0,0,1-1.76-2.84,11,11,0,0,1-.65-3.92,9.46,9.46,0,0,1,.56-3.26,8,8,0,0,1,1.61-2.66A7.61,7.61,0,0,1,218.68,34a8.43,8.43,0,0,1,3.41-.66,8.31,8.31,0,0,1,2.95.51,6.4,6.4,0,0,1,2.33,1.5,6.8,6.8,0,0,1,1.52,2.41,8.89,8.89,0,0,1,.56,3.25,2.66,2.66,0,0,1-.2,1.25.83.83,0,0,1-.76.32Zm7.77-2.46a4.89,4.89,0,0,0-.22-1.49,3.49,3.49,0,0,0-.67-1.23,3.08,3.08,0,0,0-1.13-.83,4.3,4.3,0,0,0-4.37.7,4.93,4.93,0,0,0-1.3,2.85Z"/><path class="cls-1" d="M246.16,50.75a4.46,4.46,0,0,1-3.39-1.25,4.77,4.77,0,0,1-1.18-3.44V36.61h-1.73a.76.76,0,0,1-.56-.22.8.8,0,0,1-.23-.64V34.13l2.72-.44.86-4.62a.84.84,0,0,1,.31-.51.92.92,0,0,1,.59-.18h2.12v5.33h4.52v2.9h-4.52v9.17a1.82,1.82,0,0,0,.38,1.24,1.35,1.35,0,0,0,1.07.45,1.91,1.91,0,0,0,.63-.09l.45-.19.34-.19a.52.52,0,0,1,.29-.09.49.49,0,0,1,.3.09,1.34,1.34,0,0,1,.25.27l1.22,2a6.28,6.28,0,0,1-2,1.12A7.66,7.66,0,0,1,246.16,50.75Z"/><path class="cls-1" d="M256.87,35.37a8.73,8.73,0,0,1,2.18-1.5,6.36,6.36,0,0,1,2.78-.58,6.1,6.1,0,0,1,2.46.47,4.89,4.89,0,0,1,1.79,1.32,5.91,5.91,0,0,1,1.09,2,8.55,8.55,0,0,1,.37,2.6V50.49h-4.07V39.71a3.67,3.67,0,0,0-.71-2.4,2.64,2.64,0,0,0-2.16-.85,4.2,4.2,0,0,0-2,.48,7,7,0,0,0-1.75,1.3V50.49h-4.08V26h4.08Z"/><path class="cls-1" d="M276.19,28.62a2.38,2.38,0,0,1-.21,1,3,3,0,0,1-.57.81,2.66,2.66,0,0,1-.84.55,2.52,2.52,0,0,1-1,.21,2.46,2.46,0,0,1-1-.21,2.58,2.58,0,0,1-1.37-1.36,2.37,2.37,0,0,1-.2-1,2.51,2.51,0,0,1,.2-1,2.79,2.79,0,0,1,.55-.83,2.88,2.88,0,0,1,.82-.55,2.45,2.45,0,0,1,1-.2,2.51,2.51,0,0,1,1,.2,2.84,2.84,0,0,1,.84.55,3.06,3.06,0,0,1,.57.83A2.52,2.52,0,0,1,276.19,28.62Zm-.56,4.94V50.49h-4.09V33.56Z"/><path class="cls-1" d="M290.12,36.86a1.14,1.14,0,0,1-.35.37.92.92,0,0,1-.46.1,1.47,1.47,0,0,1-.64-.16l-.78-.37a7.07,7.07,0,0,0-1-.37,4.8,4.8,0,0,0-1.34-.17,3.12,3.12,0,0,0-1.89.51,1.6,1.6,0,0,0-.68,1.34,1.28,1.28,0,0,0,.35.92,3.45,3.45,0,0,0,.94.65,8.83,8.83,0,0,0,1.33.5c.49.15,1,.31,1.51.49a14.81,14.81,0,0,1,1.51.6,5.42,5.42,0,0,1,1.33.86,4,4,0,0,1,.94,1.24,4.08,4.08,0,0,1,.35,1.75,5.59,5.59,0,0,1-.44,2.26,4.91,4.91,0,0,1-1.29,1.78,6.1,6.1,0,0,1-2.12,1.17,9.2,9.2,0,0,1-2.91.42,8.7,8.7,0,0,1-1.71-.16,10.16,10.16,0,0,1-1.6-.43,9.29,9.29,0,0,1-1.42-.66,6.94,6.94,0,0,1-1.15-.83l.94-1.55a1.36,1.36,0,0,1,.43-.43,1.22,1.22,0,0,1,.63-.15,1.29,1.29,0,0,1,.72.22c.22.14.48.29.78.46a7.48,7.48,0,0,0,1.05.46,4.68,4.68,0,0,0,1.52.21,3.86,3.86,0,0,0,1.25-.17,2.5,2.5,0,0,0,.86-.45,1.78,1.78,0,0,0,.49-.65,1.9,1.9,0,0,0,.16-.77,1.34,1.34,0,0,0-.36-1,2.81,2.81,0,0,0-.94-.66,8.81,8.81,0,0,0-1.33-.51l-1.54-.48c-.52-.18-1-.39-1.53-.62a5.43,5.43,0,0,1-1.34-.9,4.2,4.2,0,0,1-.94-1.34,5.17,5.17,0,0,1,.06-3.89,4.64,4.64,0,0,1,1.21-1.65,6.21,6.21,0,0,1,2-1.12,8.34,8.34,0,0,1,2.76-.42,8.59,8.59,0,0,1,3.19.58A7.15,7.15,0,0,1,291,35.39Z"/><path class="cls-1" d="M302.31,50.49V33.56h2.49a1,1,0,0,1,1,.74l.26,1.25a8.82,8.82,0,0,1,.94-.9,5.17,5.17,0,0,1,1-.71,5.1,5.1,0,0,1,1.18-.47,5.16,5.16,0,0,1,1.4-.18,4,4,0,0,1,2.63.87,5.17,5.17,0,0,1,1.54,2.3,5.4,5.4,0,0,1,1-1.44,5.34,5.34,0,0,1,1.31-1,5.61,5.61,0,0,1,1.51-.57,7.29,7.29,0,0,1,1.61-.18,6.91,6.91,0,0,1,2.49.43A4.92,4.92,0,0,1,324.57,35a5.63,5.63,0,0,1,1.13,2,8.71,8.71,0,0,1,.39,2.72V50.49H322V39.71a3.61,3.61,0,0,0-.71-2.43,2.59,2.59,0,0,0-2.08-.82,3.15,3.15,0,0,0-1.16.21,2.85,2.85,0,0,0-.94.62,2.91,2.91,0,0,0-.64,1,4,4,0,0,0-.23,1.4V50.49h-4.09V39.71a3.64,3.64,0,0,0-.69-2.47,2.51,2.51,0,0,0-2-.78,3.32,3.32,0,0,0-1.66.44,5.63,5.63,0,0,0-1.43,1.19v12.4Z"/><path class="cls-1" d="M337.44,33.29a9.38,9.38,0,0,1,3.42.61,7.4,7.4,0,0,1,4.33,4.47,11.25,11.25,0,0,1,0,7.25,7.68,7.68,0,0,1-1.69,2.75,7.27,7.27,0,0,1-2.64,1.75,10,10,0,0,1-6.87,0,7.3,7.3,0,0,1-2.65-1.75,7.84,7.84,0,0,1-1.7-2.75,11.25,11.25,0,0,1,0-7.25,7.67,7.67,0,0,1,1.7-2.73A7.55,7.55,0,0,1,334,33.9,9.46,9.46,0,0,1,337.44,33.29Zm0,14.31a3.58,3.58,0,0,0,3.12-1.42,7.09,7.09,0,0,0,1-4.16,7.15,7.15,0,0,0-1-4.17,3.54,3.54,0,0,0-3.12-1.44,3.65,3.65,0,0,0-3.18,1.44,7.13,7.13,0,0,0-1,4.17,7,7,0,0,0,1,4.15A3.67,3.67,0,0,0,337.44,47.6Z"/><path class="cls-1" d="M363.64,33.56l-6.72,16.93h-3.69l-6.72-16.93h3.37a1.34,1.34,0,0,1,.77.21,1,1,0,0,1,.4.55l3.27,9c.17.53.33,1,.46,1.55s.25,1,.35,1.52c.11-.51.23-1,.36-1.52s.29-1,.48-1.55l3.33-9a1.12,1.12,0,0,1,.41-.55,1.21,1.21,0,0,1,.71-.21Z"/><path class="cls-1" d="M370.59,28.62a2.39,2.39,0,0,1-.22,1,2.58,2.58,0,0,1-.57.81,2.68,2.68,0,0,1-1.85.76,2.39,2.39,0,0,1-1-.21,2.46,2.46,0,0,1-.82-.55,2.7,2.7,0,0,1-.55-.81,2.38,2.38,0,0,1-.21-1,2.52,2.52,0,0,1,.21-1,2.79,2.79,0,0,1,.55-.83,2.62,2.62,0,0,1,.82-.55,2.38,2.38,0,0,1,1-.2,2.51,2.51,0,0,1,1,.2,2.62,2.62,0,0,1,1.4,1.38A2.53,2.53,0,0,1,370.59,28.62ZM370,33.56V50.49h-4.09V33.56Z"/><path class="cls-1" d="M377.32,42.53a7.84,7.84,0,0,0,.46,2.25,4.44,4.44,0,0,0,1,1.57,3.78,3.78,0,0,0,1.41.93,5.15,5.15,0,0,0,1.8.3,5.75,5.75,0,0,0,1.71-.23,7.5,7.5,0,0,0,1.26-.51l.94-.51a1.51,1.51,0,0,1,.78-.23.84.84,0,0,1,.76.38L388.57,48a6.82,6.82,0,0,1-1.52,1.33,8.61,8.61,0,0,1-1.75.86,10.38,10.38,0,0,1-1.87.45,13,13,0,0,1-1.84.13,9,9,0,0,1-3.28-.58,7.43,7.43,0,0,1-2.64-1.73,8.25,8.25,0,0,1-1.77-2.84,11,11,0,0,1-.64-3.92,9.46,9.46,0,0,1,.56-3.26,7.81,7.81,0,0,1,1.61-2.66A7.61,7.61,0,0,1,378,34a9,9,0,0,1,6.36-.15,6.37,6.37,0,0,1,2.32,1.5,6.82,6.82,0,0,1,1.53,2.41,8.89,8.89,0,0,1,.55,3.25,2.54,2.54,0,0,1-.2,1.25.82.82,0,0,1-.76.32Zm7.77-2.46a5.21,5.21,0,0,0-.22-1.49,3.49,3.49,0,0,0-.67-1.23,3.16,3.16,0,0,0-1.13-.83,4.3,4.3,0,0,0-4.37.7,4.93,4.93,0,0,0-1.3,2.85Z"/></g></g></svg>