<svg id="Layer_1" data-name="Layer 1" xmlns="http://www.w3.org/2000/svg" viewBox="0 0 407.96 80.54"><defs><style>.cls-1{fill:#fff;}.cls-2{isolation:isolate;}.cls-3{fill:#1196c6;}</style></defs><title>btn</title><path class="cls-1" d="M367.8,80.54c-1,0-2-.05-3.18-.14H43.31c-1.14.09-2.18.14-3.15.14A40.16,40.16,0,0,1,40,.22V0H368.43V.23a40.16,40.16,0,0,1-.63,80.31Zm-3.15-.89c1.18.09,2.2.14,3.15.14A39.41,39.41,0,0,0,368.06,1h-.38V.75H40.79V1h-.63a39.41,39.41,0,0,0,0,78.82c1,0,2-.05,3.13-.14Z"/><g id="December_18_2019" data-name="December 18 2019"><g class="cls-2"><path class="cls-1" d="M106.81,50.49h-3.43a1.47,1.47,0,0,1-.94-.29,1.93,1.93,0,0,1-.55-.72l-1.78-4.87H90.23l-1.78,4.87a1.58,1.58,0,0,1-.52.69,1.41,1.41,0,0,1-.94.32H83.53l9.39-23.86h4.52Zm-7.84-9-2.9-7.94c-.14-.35-.29-.77-.45-1.25s-.31-1-.46-1.57c-.14.56-.29,1.08-.44,1.57s-.31.92-.45,1.28l-2.89,7.91Z"/><path class="cls-1" d="M123,26V50.49h-2.5a1,1,0,0,1-1-.75l-.35-1.63a8.58,8.58,0,0,1-2.35,1.9,6.35,6.35,0,0,1-3.09.72,5.67,5.67,0,0,1-2.54-.57,5.79,5.79,0,0,1-2-1.68,8.12,8.12,0,0,1-1.29-2.71,13.84,13.84,0,0,1-.45-3.7,11.61,11.61,0,0,1,.51-3.5,8.39,8.39,0,0,1,1.47-2.8,7,7,0,0,1,2.29-1.86,6.69,6.69,0,0,1,3-.67,5.91,5.91,0,0,1,2.42.45,6.44,6.44,0,0,1,1.8,1.2V26Zm-4.08,11.91a4,4,0,0,0-1.51-1.19,4.46,4.46,0,0,0-1.76-.35,3.88,3.88,0,0,0-1.66.35,3.28,3.28,0,0,0-1.27,1.05,4.8,4.8,0,0,0-.81,1.78,10.09,10.09,0,0,0-.28,2.55,11.33,11.33,0,0,0,.24,2.52,5,5,0,0,0,.68,1.68,2.64,2.64,0,0,0,1.09.94,3.53,3.53,0,0,0,1.44.29,4.22,4.22,0,0,0,2.16-.53,6.44,6.44,0,0,0,1.68-1.5Z"/><path class="cls-1" d="M141.72,26V50.49h-2.49a1,1,0,0,1-1-.75l-.35-1.63a8.58,8.58,0,0,1-2.35,1.9,6.41,6.41,0,0,1-3.09.72,5.64,5.64,0,0,1-2.54-.57,5.7,5.7,0,0,1-2-1.68,7.94,7.94,0,0,1-1.29-2.71,13.84,13.84,0,0,1-.45-3.7,11.61,11.61,0,0,1,.51-3.5,8.39,8.39,0,0,1,1.47-2.8,6.86,6.86,0,0,1,2.29-1.86,6.68,6.68,0,0,1,3-.67,5.92,5.92,0,0,1,2.43.45,6.44,6.44,0,0,1,1.8,1.2V26Zm-4.07,11.91a4,4,0,0,0-1.51-1.19,4.49,4.49,0,0,0-1.76-.35,3.93,3.93,0,0,0-1.67.35,3.43,3.43,0,0,0-1.27,1.05,5,5,0,0,0-.8,1.78,10.06,10.06,0,0,0-.29,2.55,11.33,11.33,0,0,0,.24,2.52,5,5,0,0,0,.69,1.68,2.64,2.64,0,0,0,1.09.94,3.51,3.51,0,0,0,1.43.29A4.17,4.17,0,0,0,136,47a6.32,6.32,0,0,0,1.69-1.5Z"/><path class="cls-1" d="M159.41,50.75A4.46,4.46,0,0,1,156,49.5a4.77,4.77,0,0,1-1.18-3.44V36.61h-1.73a.76.76,0,0,1-.56-.22.8.8,0,0,1-.23-.64V34.13l2.72-.44.86-4.62a.89.89,0,0,1,.31-.51.92.92,0,0,1,.59-.18h2.12v5.33h4.52v2.9h-4.52v9.17A1.82,1.82,0,0,0,159.3,47a1.35,1.35,0,0,0,1.07.45,1.91,1.91,0,0,0,.63-.09l.45-.19.34-.19a.57.57,0,0,1,.29-.09.47.47,0,0,1,.3.09,1.34,1.34,0,0,1,.25.27l1.22,2a6.18,6.18,0,0,1-2,1.12A7.66,7.66,0,0,1,159.41,50.75Z"/><path class="cls-1" d="M173.4,33.29a9.39,9.39,0,0,1,3.43.61,7.4,7.4,0,0,1,4.33,4.47,11.43,11.43,0,0,1,0,7.25,7.82,7.82,0,0,1-1.69,2.75,7.44,7.44,0,0,1-2.64,1.75,9.19,9.19,0,0,1-3.43.61,9.33,9.33,0,0,1-3.45-.61,7.27,7.27,0,0,1-2.64-1.75,7.7,7.7,0,0,1-1.7-2.75,11.08,11.08,0,0,1,0-7.25A7.45,7.45,0,0,1,170,33.9,9.54,9.54,0,0,1,173.4,33.29Zm0,14.31a3.61,3.61,0,0,0,3.13-1.42,7.1,7.1,0,0,0,1-4.16,7.15,7.15,0,0,0-1-4.17,3.57,3.57,0,0,0-3.13-1.44,3.62,3.62,0,0,0-3.17,1.44,7.13,7.13,0,0,0-1,4.17,7,7,0,0,0,1,4.15A3.64,3.64,0,0,0,173.4,47.6Z"/><path class="cls-1" d="M225.06,26.63l-7.4,23.86h-4l-5.22-16.31a11.31,11.31,0,0,1-.39-1.45c-.07.28-.14.53-.2.78s-.14.46-.22.67l-5.26,16.31h-4l-7.39-23.86h3.72a1.65,1.65,0,0,1,1,.27,1.33,1.33,0,0,1,.52.73l4.06,14.28c.09.35.17.73.26,1.14s.16.85.25,1.3c.09-.46.18-.9.29-1.31s.22-.78.34-1.13L206,27.63a1.66,1.66,0,0,1,.52-.69,1.47,1.47,0,0,1,1-.31h1.31a1.5,1.5,0,0,1,.94.28,1.7,1.7,0,0,1,.54.72L215,41.91a21.16,21.16,0,0,1,.63,2.35c.14-.86.3-1.65.48-2.35l4.05-14.28a1.29,1.29,0,0,1,.51-.71,1.63,1.63,0,0,1,1-.29Z"/><path class="cls-1" d="M224.93,35.92a10,10,0,0,1,7-2.68,7,7,0,0,1,2.66.49,5.53,5.53,0,0,1,2,1.35,5.81,5.81,0,0,1,1.23,2.07,8,8,0,0,1,.42,2.64v10.7H236.4a1.79,1.79,0,0,1-.89-.18,1.18,1.18,0,0,1-.5-.7l-.36-1.22a14.6,14.6,0,0,1-1.25,1,7.11,7.11,0,0,1-1.27.74,6.45,6.45,0,0,1-1.41.45,7.86,7.86,0,0,1-1.66.16,6.53,6.53,0,0,1-2-.29,4.22,4.22,0,0,1-1.57-.87,3.82,3.82,0,0,1-1-1.43,5.13,5.13,0,0,1-.37-2,4.1,4.1,0,0,1,.22-1.28,3.66,3.66,0,0,1,.7-1.21,6,6,0,0,1,1.26-1.09,8.09,8.09,0,0,1,1.91-.89,16.75,16.75,0,0,1,2.63-.62,27.35,27.35,0,0,1,3.43-.29v-1a3.71,3.71,0,0,0-.72-2.51,2.66,2.66,0,0,0-2.1-.82,5.05,5.05,0,0,0-1.64.23,7.3,7.3,0,0,0-1.15.52l-.9.52a1.83,1.83,0,0,1-.9.23,1.14,1.14,0,0,1-.72-.22,1.82,1.82,0,0,1-.48-.52Zm9.34,7.34a23.08,23.08,0,0,0-3,.3,8,8,0,0,0-1.93.57,2.55,2.55,0,0,0-1,.81,1.74,1.74,0,0,0-.31,1,1.78,1.78,0,0,0,.63,1.53,2.76,2.76,0,0,0,1.66.46,4.86,4.86,0,0,0,2.17-.45,6.3,6.3,0,0,0,1.79-1.38Z"/><path class="cls-1" d="M247.49,50.75a4.43,4.43,0,0,1-3.39-1.25,4.77,4.77,0,0,1-1.18-3.44V36.61h-1.74a.78.78,0,0,1-.56-.22.83.83,0,0,1-.23-.64V34.13l2.73-.44.85-4.62a.9.9,0,0,1,.32-.51.92.92,0,0,1,.59-.18H247v5.33h4.52v2.9H247v9.17a1.82,1.82,0,0,0,.39,1.24,1.33,1.33,0,0,0,1.07.45,1.91,1.91,0,0,0,.63-.09l.45-.19.33-.19a.58.58,0,0,1,.3-.09.49.49,0,0,1,.3.09,1.34,1.34,0,0,1,.25.27l1.22,2a6.28,6.28,0,0,1-2.05,1.12A7.71,7.71,0,0,1,247.49,50.75Z"/><path class="cls-1" d="M266.12,37.14a2,2,0,0,1-.36.36.79.79,0,0,1-.5.13,1.09,1.09,0,0,1-.61-.19l-.71-.43a5.64,5.64,0,0,0-1-.43,4.71,4.71,0,0,0-1.41-.19,4.24,4.24,0,0,0-1.88.39,3.57,3.57,0,0,0-1.35,1.12,5,5,0,0,0-.8,1.75,10.58,10.58,0,0,0,0,4.75,5.2,5.2,0,0,0,.84,1.77,3.55,3.55,0,0,0,1.32,1.09,4,4,0,0,0,1.75.37,4.28,4.28,0,0,0,1.57-.24,4.85,4.85,0,0,0,1-.53c.27-.19.51-.36.71-.52a1.11,1.11,0,0,1,.69-.24.8.8,0,0,1,.74.38L267.35,48a7.32,7.32,0,0,1-1.47,1.33,7.79,7.79,0,0,1-1.64.86,8.65,8.65,0,0,1-1.75.45,12,12,0,0,1-1.79.13,7.5,7.5,0,0,1-2.95-.58,6.94,6.94,0,0,1-2.42-1.71,8,8,0,0,1-1.65-2.75,11.53,11.53,0,0,1-.06-7.16,7.69,7.69,0,0,1,1.57-2.75A7.21,7.21,0,0,1,257.77,34a8.86,8.86,0,0,1,3.53-.66,8.51,8.51,0,0,1,3.32.61,8.21,8.21,0,0,1,2.57,1.75Z"/><path class="cls-1" d="M274,35.37a8.92,8.92,0,0,1,2.18-1.5,6.37,6.37,0,0,1,2.79-.58,6.17,6.17,0,0,1,2.46.47,5.06,5.06,0,0,1,1.79,1.32,5.89,5.89,0,0,1,1.08,2,8.55,8.55,0,0,1,.38,2.6V50.49h-4.08V39.71a3.67,3.67,0,0,0-.71-2.4,2.64,2.64,0,0,0-2.16-.85,4.23,4.23,0,0,0-2,.48,7,7,0,0,0-1.75,1.3V50.49h-4.08V26H274Z"/><path class="cls-1" d="M311.14,46.82v3.67h-14V26.63h4.44V46.82Z"/><path class="cls-1" d="M313.27,35.92a10,10,0,0,1,7-2.68,7,7,0,0,1,2.66.49,5.53,5.53,0,0,1,2,1.35,5.81,5.81,0,0,1,1.23,2.07,8,8,0,0,1,.42,2.64v10.7h-1.85a1.79,1.79,0,0,1-.89-.18,1.18,1.18,0,0,1-.5-.7L323,48.39a14.6,14.6,0,0,1-1.25,1,7.11,7.11,0,0,1-1.27.74,6.45,6.45,0,0,1-1.41.45,7.86,7.86,0,0,1-1.66.16,6.53,6.53,0,0,1-2-.29,4.22,4.22,0,0,1-1.57-.87,3.82,3.82,0,0,1-1-1.43,5,5,0,0,1-.37-2,4.1,4.1,0,0,1,.22-1.28,3.66,3.66,0,0,1,.7-1.21,5.76,5.76,0,0,1,1.26-1.09,8.09,8.09,0,0,1,1.91-.89,16.75,16.75,0,0,1,2.63-.62,27.35,27.35,0,0,1,3.43-.29v-1a3.71,3.71,0,0,0-.72-2.51,2.66,2.66,0,0,0-2.1-.82,5.05,5.05,0,0,0-1.64.23,7.3,7.3,0,0,0-1.15.52l-.9.52a1.83,1.83,0,0,1-.9.23,1.14,1.14,0,0,1-.72-.22,1.82,1.82,0,0,1-.48-.52Zm9.34,7.34a23.08,23.08,0,0,0-3,.3,8,8,0,0,0-1.93.57,2.55,2.55,0,0,0-1,.81,1.74,1.74,0,0,0-.31,1,1.78,1.78,0,0,0,.63,1.53,2.76,2.76,0,0,0,1.66.46,4.86,4.86,0,0,0,2.17-.45,6.3,6.3,0,0,0,1.79-1.38Z"/><path class="cls-1" d="M335.83,50.75a4.43,4.43,0,0,1-3.39-1.25,4.77,4.77,0,0,1-1.18-3.44V36.61h-1.74a.78.78,0,0,1-.56-.22.83.83,0,0,1-.23-.64V34.13l2.73-.44.85-4.62a.9.9,0,0,1,.32-.51.92.92,0,0,1,.59-.18h2.11v5.33h4.52v2.9h-4.52v9.17a1.82,1.82,0,0,0,.39,1.24,1.33,1.33,0,0,0,1.07.45,1.91,1.91,0,0,0,.63-.09l.45-.19.33-.19a.58.58,0,0,1,.3-.09.49.49,0,0,1,.3.09,1.09,1.09,0,0,1,.24.27l1.23,2a6.28,6.28,0,0,1-2,1.12A7.71,7.71,0,0,1,335.83,50.75Z"/><path class="cls-1" d="M345.46,42.53a7.83,7.83,0,0,0,.47,2.25,4.57,4.57,0,0,0,.95,1.57,3.94,3.94,0,0,0,1.41.93,5.25,5.25,0,0,0,1.81.3,5.75,5.75,0,0,0,1.71-.23,7,7,0,0,0,1.25-.51l.94-.51a1.52,1.52,0,0,1,.79-.23.84.84,0,0,1,.76.38L356.72,48a6.82,6.82,0,0,1-1.52,1.33,8.69,8.69,0,0,1-1.76.86,10.08,10.08,0,0,1-1.86.45,13.05,13.05,0,0,1-1.84.13,9.11,9.11,0,0,1-3.29-.58,7.43,7.43,0,0,1-2.64-1.73,8.38,8.38,0,0,1-1.76-2.84,11,11,0,0,1-.64-3.92A9.23,9.23,0,0,1,342,38.4a7.81,7.81,0,0,1,1.61-2.66A7.57,7.57,0,0,1,346.13,34a8.43,8.43,0,0,1,3.41-.66,8.27,8.27,0,0,1,2.95.51,6.32,6.32,0,0,1,2.33,1.5,6.82,6.82,0,0,1,1.53,2.41A9.11,9.11,0,0,1,356.9,41a2.66,2.66,0,0,1-.2,1.25.82.82,0,0,1-.76.32Zm7.78-2.46a4.89,4.89,0,0,0-.23-1.49,3.49,3.49,0,0,0-.67-1.23,3,3,0,0,0-1.13-.83,3.73,3.73,0,0,0-1.59-.31,3.8,3.8,0,0,0-2.78,1,4.92,4.92,0,0,0-1.29,2.85Z"/><path class="cls-1" d="M363.79,36.49a7.32,7.32,0,0,1,1.89-2.38,4,4,0,0,1,2.57-.87,3.15,3.15,0,0,1,1.88.51l-.26,3.06a.88.88,0,0,1-.24.42.7.7,0,0,1-.42.12,5.53,5.53,0,0,1-.74-.08,5.15,5.15,0,0,0-1-.08,3.44,3.44,0,0,0-1.2.19,3.38,3.38,0,0,0-.95.57,3.87,3.87,0,0,0-.74.9,8,8,0,0,0-.6,1.21V50.49H360V33.56h2.39a1.33,1.33,0,0,1,.88.22,1.36,1.36,0,0,1,.33.8Z"/></g></g><rect class="cls-3" x="18.14" y="39.77" width="55.21" height="1"/><rect class="cls-3" x="45.25" y="12.66" width="1" height="55.21"/></svg>