<svg id="Layer_1" data-name="Layer 1" xmlns="http://www.w3.org/2000/svg" viewBox="0 0 453.35 80.54"><defs><style>.cls-1{fill:#fff;}.cls-2{fill:#c74649;}.cls-3{isolation:isolate;}</style></defs><title>btn</title><path class="cls-1" d="M413.19,80.54,43.31,80.4c-1.14.09-2.18.14-3.15.14A40.16,40.16,0,0,1,40,.22V0h.37l373,.23a40.16,40.16,0,0,1-.26,80.31Zm-369.9-.89,369.9.14A39.41,39.41,0,0,0,413.44,1L40.79.75V1h-.63a39.41,39.41,0,0,0,0,78.82C41.11,79.79,42.13,79.74,43.29,79.65Z"/><path class="cls-2" d="M45.66,67.68a225.28,225.28,0,0,0,23.54-20C76.48,40.43,78.13,22,62.3,20c-7.89-1-16.55,4.13-16.55,12.09,0-8-8.67-13.12-16.55-12.09C13.37,22,15,40.43,22.29,47.71a225.28,225.28,0,0,0,23.54,20"/><g id="December_18_2019" data-name="December 18 2019"><g class="cls-3"><path class="cls-1" d="M105,46.91a5.93,5.93,0,0,0,2.3-.43A4.7,4.7,0,0,0,109,45.27a5.15,5.15,0,0,0,1.06-1.88,7.67,7.67,0,0,0,.37-2.47V26.63h4.44V40.92a11.15,11.15,0,0,1-.68,3.93A8.79,8.79,0,0,1,109.14,50a12,12,0,0,1-8.26,0,8.79,8.79,0,0,1-5.08-5.17,11.15,11.15,0,0,1-.68-3.93V26.63h4.44V40.9a7.63,7.63,0,0,0,.37,2.47A5.3,5.3,0,0,0,101,45.26a4.73,4.73,0,0,0,1.72,1.22A5.93,5.93,0,0,0,105,46.91Z"/><path class="cls-1" d="M122.54,35.64a10.79,10.79,0,0,1,1.08-1,7.18,7.18,0,0,1,1.21-.75,6.61,6.61,0,0,1,1.36-.47,6.53,6.53,0,0,1,1.58-.18,6.1,6.1,0,0,1,2.46.47A5,5,0,0,1,132,35.08a5.91,5.91,0,0,1,1.09,2,8.6,8.6,0,0,1,.37,2.6V50.49h-4.07V39.71a3.67,3.67,0,0,0-.71-2.4,2.66,2.66,0,0,0-2.16-.85,4.2,4.2,0,0,0-2,.48,7,7,0,0,0-1.75,1.3V50.49h-4.08V33.56h2.49a1,1,0,0,1,1,.74Z"/><path class="cls-1" d="M138.23,50.49V36.63l-1.46-.23a1.77,1.77,0,0,1-.77-.34.85.85,0,0,1-.29-.69V33.71h2.52V32.45a7.36,7.36,0,0,1,.44-2.61,5.34,5.34,0,0,1,1.26-2,5.42,5.42,0,0,1,2-1.24,7.86,7.86,0,0,1,2.64-.43,7.27,7.27,0,0,1,2.18.32l-.08,2a.65.65,0,0,1-.13.37.7.7,0,0,1-.31.22,1.7,1.7,0,0,1-.43.1l-.53,0a5.08,5.08,0,0,0-1.3.16,2.17,2.17,0,0,0-1,.54,2.44,2.44,0,0,0-.61,1,5.4,5.4,0,0,0-.2,1.57v1.13h4.4v2.9h-4.27V50.49Z"/><path class="cls-1" d="M148.43,35.92a10,10,0,0,1,7-2.68,7,7,0,0,1,2.66.49,5.66,5.66,0,0,1,2,1.35,5.81,5.81,0,0,1,1.23,2.07,8,8,0,0,1,.42,2.64v10.7H159.9a1.79,1.79,0,0,1-.89-.18,1.18,1.18,0,0,1-.5-.7l-.36-1.22a14.6,14.6,0,0,1-1.25,1,7.11,7.11,0,0,1-1.27.74,6.37,6.37,0,0,1-1.42.45,7.7,7.7,0,0,1-1.65.16,6.53,6.53,0,0,1-2-.29A4.35,4.35,0,0,1,149,49.6a3.93,3.93,0,0,1-1-1.44,5,5,0,0,1-.37-2,3.83,3.83,0,0,1,.22-1.28,3.66,3.66,0,0,1,.7-1.21,5.76,5.76,0,0,1,1.26-1.09,8.09,8.09,0,0,1,1.91-.89,16.75,16.75,0,0,1,2.63-.62,27.35,27.35,0,0,1,3.43-.29v-1a3.65,3.65,0,0,0-.73-2.51,2.63,2.63,0,0,0-2.09-.82,5.05,5.05,0,0,0-1.64.23,7.3,7.3,0,0,0-1.15.52l-.9.52a1.72,1.72,0,0,1-.9.23,1.14,1.14,0,0,1-.72-.22,1.82,1.82,0,0,1-.48-.52Zm9.34,7.34a23.08,23.08,0,0,0-3,.3,8,8,0,0,0-1.93.57,2.55,2.55,0,0,0-1,.81,2,2,0,0,0,.32,2.54,2.76,2.76,0,0,0,1.66.46,4.86,4.86,0,0,0,2.17-.45,6.3,6.3,0,0,0,1.79-1.38Z"/><path class="cls-1" d="M180.44,33.56l-6.71,16.93H170l-6.72-16.93h3.37a1.34,1.34,0,0,1,.77.21,1,1,0,0,1,.4.55l3.27,9c.17.53.33,1,.46,1.55s.25,1,.35,1.52c.11-.51.23-1,.36-1.52s.29-1,.48-1.55l3.33-9a1.18,1.18,0,0,1,.41-.55,1.21,1.21,0,0,1,.71-.21Z"/><path class="cls-1" d="M189.57,33.29a9.38,9.38,0,0,1,3.42.61,7.5,7.5,0,0,1,2.64,1.74,7.64,7.64,0,0,1,1.69,2.73,11.25,11.25,0,0,1,0,7.25,7.82,7.82,0,0,1-1.69,2.75A7.27,7.27,0,0,1,193,50.12a10,10,0,0,1-6.87,0,7.22,7.22,0,0,1-2.65-1.75,7.84,7.84,0,0,1-1.7-2.75,11.25,11.25,0,0,1,0-7.25,7.67,7.67,0,0,1,1.7-2.73,7.46,7.46,0,0,1,2.65-1.74A9.46,9.46,0,0,1,189.57,33.29Zm0,14.31a3.56,3.56,0,0,0,3.12-1.42,7.09,7.09,0,0,0,1-4.16,7.15,7.15,0,0,0-1-4.17,3.55,3.55,0,0,0-3.12-1.44,3.65,3.65,0,0,0-3.18,1.44,7.13,7.13,0,0,0-1,4.17,7,7,0,0,0,1,4.15A3.67,3.67,0,0,0,189.57,47.6Z"/><path class="cls-1" d="M215.62,33.56V50.49h-2.49a1,1,0,0,1-1-.75l-.28-1.35a9.42,9.42,0,0,1-2.3,1.71,6.35,6.35,0,0,1-2.95.65,6,6,0,0,1-2.45-.47A4.86,4.86,0,0,1,202.34,49a5.73,5.73,0,0,1-1.1-2,8.51,8.51,0,0,1-.37-2.6V33.56h4.07V44.31a3.63,3.63,0,0,0,.72,2.41,2.69,2.69,0,0,0,2.16.84,4.29,4.29,0,0,0,2-.46,7,7,0,0,0,1.75-1.3V33.56Z"/><path class="cls-1" d="M223.49,36.49a7.43,7.43,0,0,1,1.88-2.38,4,4,0,0,1,2.58-.87,3.17,3.17,0,0,1,1.88.51l-.27,3.06a.71.71,0,0,1-.24.42.66.66,0,0,1-.42.12,5.42,5.42,0,0,1-.73-.08,5.22,5.22,0,0,0-.95-.08,3.3,3.3,0,0,0-1.21.2,3.09,3.09,0,0,0-.94.56,4.17,4.17,0,0,0-.75.9,10.5,10.5,0,0,0-.6,1.21V50.49h-4.07V33.56H222a1.28,1.28,0,0,1,.87.22,1.24,1.24,0,0,1,.33.8Z"/><path class="cls-1" d="M236.74,28.62a2.18,2.18,0,0,1-.22,1,2.73,2.73,0,0,1-.56.81,2.66,2.66,0,0,1-.84.55,2.52,2.52,0,0,1-1,.21,2.42,2.42,0,0,1-1-.21,2.57,2.57,0,0,1-.82-.55,2.7,2.7,0,0,1-.55-.81,2.31,2.31,0,0,1-.21-1,2.52,2.52,0,0,1,.21-1,2.79,2.79,0,0,1,.55-.83,2.75,2.75,0,0,1,.82-.55,2.59,2.59,0,0,1,1-.2,2.69,2.69,0,0,1,1,.2,2.54,2.54,0,0,1,1.4,1.38A2.37,2.37,0,0,1,236.74,28.62Zm-.56,4.94V50.49h-4.09V33.56Z"/><path class="cls-1" d="M246,50.75a4.45,4.45,0,0,1-3.39-1.25,4.77,4.77,0,0,1-1.18-3.44V36.61h-1.73a.79.79,0,0,1-.56-.21.84.84,0,0,1-.24-.65V34.13l2.73-.44.85-4.62a.9.9,0,0,1,.32-.51.92.92,0,0,1,.59-.18h2.11v5.33H250v2.9h-4.52v9.17a1.82,1.82,0,0,0,.39,1.24,1.33,1.33,0,0,0,1.07.45,1.91,1.91,0,0,0,.63-.09l.45-.19.34-.19a.52.52,0,0,1,.29-.09.49.49,0,0,1,.3.09,1.34,1.34,0,0,1,.25.27l1.22,2a6.28,6.28,0,0,1-2,1.12A7.71,7.71,0,0,1,246,50.75Z"/><path class="cls-1" d="M255.61,42.53a7.83,7.83,0,0,0,.47,2.25,4.57,4.57,0,0,0,.95,1.57,3.82,3.82,0,0,0,1.41.93,5.25,5.25,0,0,0,1.81.3,5.44,5.44,0,0,0,1.71-.23,7,7,0,0,0,1.25-.51l.94-.51a1.52,1.52,0,0,1,.79-.23.84.84,0,0,1,.76.38L266.87,48a6.82,6.82,0,0,1-1.52,1.33,8.69,8.69,0,0,1-1.76.86,10.08,10.08,0,0,1-1.86.45,13.16,13.16,0,0,1-1.84.13,9.11,9.11,0,0,1-3.29-.58A7.43,7.43,0,0,1,254,48.42a8.38,8.38,0,0,1-1.76-2.84,11,11,0,0,1-.64-3.92,9.23,9.23,0,0,1,.56-3.26,7.81,7.81,0,0,1,1.61-2.66A7.57,7.57,0,0,1,256.28,34a8.43,8.43,0,0,1,3.41-.66,8.27,8.27,0,0,1,2.95.51A6.54,6.54,0,0,1,265,35.3a6.91,6.91,0,0,1,1.53,2.41,9.13,9.13,0,0,1,.55,3.26,2.64,2.64,0,0,1-.2,1.24.8.8,0,0,1-.76.32Zm7.78-2.46a4.89,4.89,0,0,0-.23-1.49,3.64,3.64,0,0,0-.66-1.23,3.16,3.16,0,0,0-1.13-.83,4.31,4.31,0,0,0-4.38.7,4.92,4.92,0,0,0-1.29,2.85Z"/><path class="cls-1" d="M283.76,50.75a4.46,4.46,0,0,1-3.39-1.25,4.82,4.82,0,0,1-1.18-3.44V36.61h-1.73a.79.79,0,0,1-.56-.21.87.87,0,0,1-.23-.65V34.13l2.72-.44.86-4.62a.89.89,0,0,1,.31-.51,1,1,0,0,1,.6-.18h2.11v5.33h4.52v2.9h-4.52v9.17a1.82,1.82,0,0,0,.39,1.24,1.33,1.33,0,0,0,1.06.45,2,2,0,0,0,.64-.09l.44-.19.34-.19a.58.58,0,0,1,.3-.09.44.44,0,0,1,.29.09,1.34,1.34,0,0,1,.25.27l1.22,2a6.13,6.13,0,0,1-2,1.12A7.73,7.73,0,0,1,283.76,50.75Z"/><path class="cls-1" d="M294.47,35.37a9.2,9.2,0,0,1,2.18-1.5,6.37,6.37,0,0,1,2.79-.58,6.17,6.17,0,0,1,2.46.47,5.06,5.06,0,0,1,1.79,1.32,5.91,5.91,0,0,1,1.09,2,8.92,8.92,0,0,1,.37,2.6V50.49h-4.08V39.71a3.67,3.67,0,0,0-.71-2.4,2.64,2.64,0,0,0-2.16-.85,4.26,4.26,0,0,0-2,.48,7,7,0,0,0-1.75,1.3V50.49H290.4V26h4.07Z"/><path class="cls-1" d="M313.79,28.62a2.31,2.31,0,0,1-.21,1,2.58,2.58,0,0,1-.57.81,2.61,2.61,0,0,1-.83.55,2.53,2.53,0,0,1-1,.21,2.38,2.38,0,0,1-1-.21,2.46,2.46,0,0,1-.82-.55,2.53,2.53,0,0,1-.55-.81,2.31,2.31,0,0,1-.21-1,2.52,2.52,0,0,1,.21-1,2.53,2.53,0,0,1,1.37-1.38,2.54,2.54,0,0,1,1-.2,2.7,2.7,0,0,1,1,.2,2.79,2.79,0,0,1,.83.55,2.67,2.67,0,0,1,.57.83A2.52,2.52,0,0,1,313.79,28.62Zm-.56,4.94V50.49h-4.09V33.56Z"/><path class="cls-1" d="M327.72,36.86a1.14,1.14,0,0,1-.35.37.89.89,0,0,1-.46.11,1.42,1.42,0,0,1-.63-.17l-.79-.37a6.92,6.92,0,0,0-1-.37,4.87,4.87,0,0,0-1.35-.17,3.12,3.12,0,0,0-1.89.51,1.62,1.62,0,0,0-.68,1.34,1.32,1.32,0,0,0,.35.92,3.45,3.45,0,0,0,.94.65,9.26,9.26,0,0,0,1.33.5c.5.15,1,.31,1.51.49s1,.38,1.51.6a5.24,5.24,0,0,1,1.33.86,4.11,4.11,0,0,1,.94,1.24,3.93,3.93,0,0,1,.35,1.75,5.76,5.76,0,0,1-.43,2.26,4.94,4.94,0,0,1-1.3,1.78A6.1,6.1,0,0,1,325,50.33a9.2,9.2,0,0,1-2.91.42,8.85,8.85,0,0,1-1.71-.16,10.46,10.46,0,0,1-1.6-.43,9.75,9.75,0,0,1-1.42-.66,7.28,7.28,0,0,1-1.14-.83l.94-1.55a1.26,1.26,0,0,1,.43-.43,1.16,1.16,0,0,1,.62-.15,1.27,1.27,0,0,1,.72.22c.22.14.49.29.78.46a7.48,7.48,0,0,0,1.05.46,4.68,4.68,0,0,0,1.53.22,3.78,3.78,0,0,0,1.24-.18,2.41,2.41,0,0,0,.86-.45,1.81,1.81,0,0,0,.5-.65,2.07,2.07,0,0,0,.15-.77,1.37,1.37,0,0,0-.35-1,2.92,2.92,0,0,0-.94-.66,9,9,0,0,0-1.34-.51l-1.53-.48a16,16,0,0,1-1.54-.62,5.37,5.37,0,0,1-1.33-.9,3.81,3.81,0,0,1-.94-1.34,4.58,4.58,0,0,1-.36-1.91,4.91,4.91,0,0,1,.41-2,4.55,4.55,0,0,1,1.22-1.64,5.89,5.89,0,0,1,2-1.13,8.36,8.36,0,0,1,2.77-.42,8.57,8.57,0,0,1,3.18.58,7.21,7.21,0,0,1,2.39,1.52Z"/><path class="cls-1" d="M339.91,50.49V33.56h2.49a1,1,0,0,1,1,.74l.27,1.25a7.88,7.88,0,0,1,.93-.9,5.71,5.71,0,0,1,2.23-1.18,5,5,0,0,1,1.39-.18,3.92,3.92,0,0,1,2.63.87,5.27,5.27,0,0,1,1.55,2.3,5,5,0,0,1,1-1.44,5.29,5.29,0,0,1,1.3-1,6.11,6.11,0,0,1,1.51-.57,7.29,7.29,0,0,1,1.61-.18,6.91,6.91,0,0,1,2.49.43A4.76,4.76,0,0,1,362.17,35a5.48,5.48,0,0,1,1.13,2,8.71,8.71,0,0,1,.39,2.72V50.49h-4.08V39.71a3.56,3.56,0,0,0-.71-2.43,2.58,2.58,0,0,0-2.08-.82,3,3,0,0,0-1.16.22,2.68,2.68,0,0,0-.94.61,2.76,2.76,0,0,0-.63,1,3.8,3.8,0,0,0-.24,1.4V50.49h-4.09V39.71a3.7,3.7,0,0,0-.68-2.47,2.54,2.54,0,0,0-2-.78,3.29,3.29,0,0,0-1.65.44A5.46,5.46,0,0,0,344,38.09v12.4Z"/><path class="cls-1" d="M375,33.29a9.34,9.34,0,0,1,3.42.61,7.45,7.45,0,0,1,4.34,4.47,11.43,11.43,0,0,1,0,7.25,7.7,7.7,0,0,1-1.7,2.75,7.27,7.27,0,0,1-2.64,1.75,9.13,9.13,0,0,1-3.42.61,9.33,9.33,0,0,1-3.45-.61,7.39,7.39,0,0,1-2.65-1.75,8,8,0,0,1-1.7-2.75,11.25,11.25,0,0,1,0-7.25,7.81,7.81,0,0,1,1.7-2.73,7.64,7.64,0,0,1,2.65-1.74A9.54,9.54,0,0,1,375,33.29Zm0,14.31a3.58,3.58,0,0,0,3.13-1.42,7.17,7.17,0,0,0,1-4.16,7.23,7.23,0,0,0-1-4.17A3.57,3.57,0,0,0,375,36.41a3.65,3.65,0,0,0-3.18,1.44,7.21,7.21,0,0,0-1,4.17,7.08,7.08,0,0,0,1,4.15A3.67,3.67,0,0,0,375,47.6Z"/><path class="cls-1" d="M401.24,33.56l-6.71,16.93h-3.7l-6.71-16.93h3.36a1.34,1.34,0,0,1,.77.21,1,1,0,0,1,.4.55l3.27,9c.18.53.33,1,.46,1.55s.25,1,.35,1.52c.11-.51.23-1,.36-1.52s.29-1,.48-1.55l3.33-9a1.14,1.14,0,0,1,.42-.55,1.17,1.17,0,0,1,.71-.21Z"/><path class="cls-1" d="M408.19,28.62a2.18,2.18,0,0,1-.22,1,2.73,2.73,0,0,1-.56.81,2.66,2.66,0,0,1-.84.55,2.52,2.52,0,0,1-1,.21,2.42,2.42,0,0,1-1-.21,2.58,2.58,0,0,1-1.37-1.36,2.31,2.31,0,0,1-.2-1,2.51,2.51,0,0,1,.2-1,2.79,2.79,0,0,1,.55-.83,2.88,2.88,0,0,1,.82-.55,2.59,2.59,0,0,1,1-.2,2.69,2.69,0,0,1,1,.2A2.54,2.54,0,0,1,408,27.6,2.37,2.37,0,0,1,408.19,28.62Zm-.56,4.94V50.49h-4.09V33.56Z"/><path class="cls-1" d="M414.92,42.53a8.2,8.2,0,0,0,.46,2.25,4.44,4.44,0,0,0,1,1.57,3.82,3.82,0,0,0,1.41.93,5.25,5.25,0,0,0,1.81.3,5.44,5.44,0,0,0,1.71-.23,7.73,7.73,0,0,0,1.25-.51l.94-.51a1.51,1.51,0,0,1,.78-.23.83.83,0,0,1,.76.38L426.17,48a6.78,6.78,0,0,1-1.51,1.33,9,9,0,0,1-1.76.86,10,10,0,0,1-1.87.45,13,13,0,0,1-1.84.13,9.05,9.05,0,0,1-3.28-.58,7.43,7.43,0,0,1-2.64-1.73,8.09,8.09,0,0,1-1.76-2.84,11,11,0,0,1-.65-3.92,9.46,9.46,0,0,1,.56-3.26A8,8,0,0,1,413,35.74,7.61,7.61,0,0,1,415.59,34a8.43,8.43,0,0,1,3.41-.66,8.31,8.31,0,0,1,2.95.51,6.54,6.54,0,0,1,2.33,1.5,7,7,0,0,1,1.52,2.41,8.91,8.91,0,0,1,.55,3.26,2.67,2.67,0,0,1-.19,1.24.81.81,0,0,1-.76.32Zm7.77-2.46a4.89,4.89,0,0,0-.22-1.49,3.49,3.49,0,0,0-.67-1.23,3.08,3.08,0,0,0-1.13-.83,4.3,4.3,0,0,0-4.37.7,4.93,4.93,0,0,0-1.3,2.85Z"/></g></g></svg>